<?xml version="1.0" encoding="utf-8"?>
<!-- Generator: Adobe Illustrator 28.1.0, SVG Export Plug-In . SVG Version: 6.00 Build 0)  -->
<svg version="1.1" id="Layer_1" xmlns="http://www.w3.org/2000/svg" xmlns:xlink="http://www.w3.org/1999/xlink" x="0px" y="0px"
	 viewBox="0 0 2649.14 2489.22" style="enable-background:new 0 0 2649.14 2489.22;" xml:space="preserve">
<style type="text/css">
	.st0{fill:#FFFFFF;}
	.st1{fill-rule:evenodd;clip-rule:evenodd;fill:#231F20;}
	.st2{fill-rule:evenodd;clip-rule:evenodd;fill:#6FBE44;}
</style>
<rect x="-76.57" y="-70.43" class="st0" width="2806" height="2635.2"/>
<g>
	<g>
		<path class="st1" d="M517.01,1113.6l3.3,10.7l15.77,56.3l23.92,83.69l19.74,66.64l17.32,60.44l2.5,7.87l-119.48,0.17
			l-38.04-143.24L361.5,1382.2l-79.89-116.15c-5.13,17.6-9.73,35.49-13.99,53.44c-4.53,17.96-8.51,35.9-11.97,53.86v1.17
			c-0.27,0.62-0.4,1.18-0.4,1.72c-0.27,1.66-0.53,3.4-0.8,5.39c-0.25,2.21-0.8,4.24-1.26,6.15c-1.13,4.66-0.97,5.71-2.95,9.55
			c-2.03,3.95-8.95,2.46-13.52,2.47c-3.49,0-8.18-1.57-8.19-6.04c-0.01-6.32,2.25-10.94,3.87-16.76l12-43.09l21.19-74.65l19.2-68.29
			l17.58-62.63l4-14.43l108.02,160.12L517.01,1113.6z M2266.39,1110.63l158.88,285.36h-137.28l-18.82-36.63l-11.31,0.02
			l-114.19,0.17l-3.92,0.01l-13.38,24.06c-2.14,2.96-2.6,6.71-5.31,9.95c-1.61,1.92-3.65,2.85-6.1,2.85c-1.89,0-9.22-0.6-10.37-1.67
			c-1.22-1.16-1.96-2.24-1.96-3.59c0-2.17-0.66-2.9,2-8.32c2.68-5.43,5.81-11.11,9.39-17.08c0.27-0.81,0.67-1.63,1.14-2.51
			c0.28-0.47,0.68-1.02,1.22-1.56c2.97-4.89,5.8-9.5,8.5-13.84c2.7-4.33,4.74-7.59,6.16-9.83l100.01-168.83
			c1.89-3.25,3.92-6.57,6.16-10.1c1.88-3.26,3.78-6.52,5.6-9.77C2250.62,1136.48,2258.99,1123.68,2266.39,1110.63 M2208.99,1241.63
			l-3.93,6.54l-52.74,90.24l-4.04,7.39c37.52-0.06,69.14,0.3,106.66,0.24l6.56-0.42L2208.99,1241.63z M238.47,1414.6h2169.8
			c8.04,0,14.61,1.79,14.61,3.99c0,2.18-6.57,3.97-14.61,3.97H238.47c-8.03,0-14.6-1.79-14.6-3.97
			C223.87,1416.39,230.44,1414.6,238.47,1414.6 M628.59,1392.52h1443.25c8.28,0,15.05,1.8,15.05,3.99c0,2.19-6.78,3.99-15.05,3.99
			H628.59c-8.27,0-15.05-1.79-15.05-3.99C613.53,1394.32,620.3,1392.52,628.59,1392.52 M314.86,1084.25H2249.2
			c7.16,0,13.03,1.96,13.03,4.37c0,2.4-5.87,4.37-13.03,4.37H314.86c-7.16,0-13.02-1.96-13.02-4.37
			C301.84,1086.21,307.7,1084.25,314.86,1084.25 M537.96,1107.09c-8.28,0-15.05,1.79-15.05,3.98c0,2.18,6.79,3.98,15.05,3.98H2235.7
			c8.27,0,15.05-1.8,15.05-3.98c0-2.19-6.77-3.98-15.05-3.98H537.96z M891.83,1196.62l0.01-17.96c2.15-0.6,4.3-1.35,6.5-2.22
			c2.08-0.65,4.23-1.31,6.36-1.95c15.09-4.98,30.1-10.06,45.12-15.2c14.68-5.26,29.17-11.21,43.38-17.92
			c-0.54,9.25-1.02,18.62-1.57,27.98c-0.53,9.25-0.81,18.67-0.82,28.2c2.69,0,5.37,0,8.05,0c2.4,0,4.96-0.1,7.58-0.32
			c2.4,0,4.94-0.1,7.64-0.27c2.4-0.22,4.96-0.44,7.64-0.66h1.61h1.67c2.41,0.22,4.7,0.66,6.84,1.25c1.81,0.87,2.75,2.6,2.74,5.14
			c0,2-0.81,3.41-2.33,4.27c-1.62,1.09-3.96,1.63-6.91,1.63c-2.89,0-5.7-0.12-8.37-0.33c-2.96,0-5.9-0.1-8.85-0.32
			c-2.96-0.21-5.76-0.43-8.44-0.65h-8.85c-0.28,7.15-0.42,12.78-0.42,16.89c0,4.33,0,8.33-0.01,11.96v1.09c0,0.38,0,0.7,0,0.92
			c-0.01,7.79,0.13,15.58,0.38,23.37c0,8.01,0.13,15.92,0.39,23.7c0.27,8.01,0.53,15.91,0.79,23.7c0,8.01-0.01,15.91-0.01,23.7
			c-0.01,7.79,0.8,13.2,2.4,16.23c1.34,3.04,3.68,4.55,7.16,4.55c1.41,0,2.89-0.32,4.42-0.97c1.67-0.38,3.29-1.1,4.9-1.95
			c3.48-1.95,6.84-4.77,10.05-8.39c3.15-3.52,5.9-7.42,8.05-11.75c0.54-1.07,1.02-2.06,1.55-2.92c0.27-0.65,0.67-1.29,1.27-1.95
			c1.07-1.51,2.08-2.59,3.15-3.23c1.14-0.6,2.48-0.92,4.02-0.92c2.15,0,3.75,0.49,4.83,1.57c1.07,1.07,1.67,2.54,1.67,4.54
			c0,2.17-0.74,4.66-2.08,7.52c-1.35,2.76-3.17,5.68-5.64,8.72c-1.88,2.59-4.03,5.08-6.43,7.46c-2.69,2.54-5.5,4.82-8.46,6.82
			c-7.98,5.42-16.83,9.43-26.55,12.01c-9.85,2.6-21.12,3.9-33.79,3.9c-26.2-0.01-44.57-6.08-55.07-18.14
			c-10.72-11.96-16.07-27.65-16.06-47.14v-7.08c0-2.38,0.14-4.76,0.42-7.15c0-2.16,0-4.42,0-6.82v-7.24l0.01-16.89l0.05-56.72H887
			c-1.61,0.17-3.22,0.28-4.83,0.28h-5.15c-1.67,0.21-3.29,0.32-4.9,0.32c-3.49,0-6.03-0.43-7.64-1.29
			c-1.62-0.87-2.41-2.28-2.41-4.22c0-2.23,0.81-3.79,2.48-4.87c1.27-0.92,3.55-1.35,6.77-1.35c1.06,0,2.41,0.1,4.02,0.32
			c1.34,0.48,2.68,0.91,4.02,1.35h0.81c1.61,0.43,3.22,0.76,4.75,0.97c1.41,0.44,2.62,0.65,3.7,0.65c1.06,0,1.87-0.21,2.4-0.65
			C891.57,1197.98,891.83,1197.44,891.83,1196.62 M1212.34,1264.76l0.02-30.47c-0.32-12.82-2.73-21.16-7.22-25.06
			c-4.89-3.83-15.07-5.79-30.55-5.79c-12.87,0-23.53,1.51-31.84,4.48c-8.58,3.04-15.69,6.28-21.32,9.81
			c-5.64,3.67-9.99,7.03-13.21,10.06c-3.55,2.98-6.63,4.49-9.24,4.49c-3.28,0-5.97-0.87-8.05-2.6c-2.4-1.67-3.62-3.63-3.6-5.79
			c0-1.74,0.74-3.58,2.34-5.58c1.61-1.95,3.89-3.89,6.84-5.84c2.68-1.47,5.76-3.08,9.25-4.81c3.22-1.58,6.84-3.1,10.93-4.55
			c9.59-3.68,20.18-6.27,31.71-7.8c11.53-1.51,24.93-2.26,40.21-2.26h2.88h2.75c11,0.21,21.98,0.75,32.98,1.56
			c10.72,1.14,20.64,2.5,29.76,4.23c24.39,4.54,39.66,11.59,45.82,21.16c6.16,9.68,9.23,23.75,9.22,42.15l-0.45,60.39v2.32
			c0,9.91,0.25,17.27,0.8,22.03c0.59,4.98,1.8,9.41,3.6,13.32c0.88,1.5,1.8,3.03,2.88,4.48c1.01,1.79,2.22,3.63,3.62,5.58h-110.18
			l0.01-16.56c-6.98,3.89-13.75,7.15-20.11,9.74c-6.77,2.82-13.34,5.09-19.78,6.83c-5.09,0.87-10.19,1.62-15.28,2.28
			c-5.3,0.64-10.66,0.97-16.02,0.97c-22.51,0-41.68-5.84-57.55-17.54c-15.81-11.7-23.72-26.08-23.7-43.19
			c0.02-17.32,8.87-31.65,26.64-42.91c17.43-11.03,39.48-16.55,66.29-16.55c5.64,0,10.86,0.16,15.69,0.44
			c4.83,0.38,9.52,1.03,14.07,1.89c4.55,0.81,9.25,2,14.14,3.57C1201.48,1260.75,1206.71,1262.6,1212.34,1264.76 M1212.73,1276.13
			c-0.27-0.22-0.53-0.44-0.87-0.66c-0.53,0-0.94-0.1-1.21-0.32c-5.63-2.16-11.38-4.22-17.28-6.17c-6.16-1.94-12.39-2.92-18.83-2.92
			c-7.51,0-12.27,1.73-14.14,5.2c-1.81,3.67-2.76,12.12-2.77,25.32l-0.02,37.94l-0.01,7.85c0,5.41,1.06,9.08,3.14,11.03
			c2.15,2.17,6.03,3.25,11.67,3.25c2.95,0,6.3-0.43,10.05-1.25c3.75-0.92,7.51-2.22,11.26-4c3.22-1.25,6.43-2.76,9.66-4.49
			c3.28-1.73,6.24-3.68,8.92-5.9L1212.73,1276.13z M1457.21,1197.23l-0.01,21.75c11-6.33,21.59-11.37,31.85-15.26
			c9.91-3.89,19.71-6.71,29.35-8.49c4.56-0.82,9.11-1.47,13.62-1.91c4.62-0.49,9.17-0.7,13.73-0.69c17.42,0,32.3,3.13,44.55,9.41
			c12.39,6.33,20.17,14.67,23.38,25.06c0.25,1.29,0.66,2.48,1.13,3.57c0.27,1.31,0.54,2.5,0.8,3.57c0.54,3.04,0.94,6.28,1.27,9.75
			c0,3.67,0,8.93-0.01,15.85c0,5.68-0.01,11.31-0.01,16.89c0,5.68-0.01,11.31-0.01,16.88c-0.33,5.68-0.47,11.31-0.49,16.89
			c0,5.68,0,11.31-0.01,16.88c0,7.15,0,14.35-0.01,21.49c0,7.15,0.13,14.29,0.45,21.43h-99.71c0.27-4.98,0.4-9.96,0.4-14.88
			c0-4.82,0.01-9.63,0.01-14.39v-3.85c0-1.29,0.14-2.5,0.4-3.57c0-1.29,0-2.6,0-3.9c0-1.07,0.01-2.26,0.01-3.56l0.42-32.53
			c0.01-5.36,0.01-10.77,0.01-16.13c0.01-5.46,0.01-10.99,0.01-16.55c-0.25-5.48-0.39-10.88-0.38-16.3c0-5.41,0-10.81,0-16.23
			c0.01-5.2-1.2-8.98-3.6-11.37c-2.48-2.16-6.5-3.25-12.13-3.25c-6.1,0-12.94,1.52-20.52,4.55c-7.7,3.03-15.88,7.46-24.54,13.31
			v6.49l-0.43,44.81c-0.01,4.33-0.01,8.55-0.01,12.66c-0.28,4.33-0.42,8.66-0.42,12.98c-0.01,4.34-0.01,8.62-0.01,12.72
			c0,4.29,0,8.56-0.01,12.89c0,6.11,0.13,12.06,0.39,17.96c0,6.01,0.13,12.06,0.39,18.12h-100.53c0.01-8.87,0.15-17.75,0.48-26.63
			c0-8.65,0.15-17.37,0.43-26.03c0-8.83,0.14-17.64,0.42-26.52c0-8.71,0.01-17.36,0.02-26.03c0-5.68,0-11.31,0-16.89
			c-0.25-5.67-0.38-11.35-0.38-17.2c-0.27-5.63-0.39-11.26-0.39-16.89c-0.34-5.63-0.46-11.25-0.46-16.88H1457.21z M1936.55,1196.72
			l0.02-17.96c2.14-0.6,4.25-1.43,6.5-2.23c2.03-0.7,4.24-1.25,6.36-1.94c15.1-4.93,30.15-9.97,45.11-15.2
			c14.73-5.16,29.17-11.2,43.38-17.92c-0.54,9.25-1.02,18.62-1.56,27.98c-0.53,9.25-0.82,18.67-0.82,28.2h8.04
			c2.41,0,4.96-0.22,7.58-0.32c2.4-0.1,4.97-0.08,7.64-0.28c2.41-0.17,4.96-0.47,7.64-0.65c0.53-0.04,1.07,0,1.62,0
			c0.6,0,1.14-0.04,1.68,0c2.41,0.17,4.78,0.48,6.84,1.25c1.91,0.7,2.74,2.6,2.74,5.14c0,2-0.85,3.35-2.34,4.27
			c-1.66,1.03-3.96,1.62-6.91,1.62c-2.89,0.01-5.69-0.22-8.37-0.32c-2.95-0.12-5.9-0.12-8.85-0.32c-2.95-0.22-5.75-0.55-8.44-0.65
			c-2.95-0.1-5.89,0-8.85,0c-0.27,7.14-0.42,12.76-0.42,16.88c0,4.33-0.01,8.34-0.01,11.97c0.01,0.47,0,0.87,0,1.07
			c0.01,0.38,0,0.72,0,0.92c0.01,7.8,0.27,11.84,0.38,19.64c0.13,8.01,0.14,15.91,0.39,23.69c0.27,8.01,0.67,15.92,0.79,23.7
			c0.13,8.01-0.01,15.92-0.01,23.7c0,7.79,0.91,13.17,2.4,16.23c1.44,2.99,3.67,4.55,7.16,4.55c1.41,0,2.81-0.46,4.42-0.97
			c1.62-0.52,3.3-1.07,4.9-1.95c3.49-1.93,6.83-4.77,10.05-8.39c3.15-3.52,5.91-7.42,8.05-11.75c0.54-1.07,1.09-2.03,1.55-2.91
			c0.33-0.64,0.74-1.27,1.27-1.95c1.15-1.48,2.07-2.63,3.15-3.25c1.12-0.62,2.5-0.92,4.02-0.92c2.15,0,3.77,0.49,4.83,1.57
			c1.07,1.07,1.67,2.55,1.67,4.55c0,2.16-0.73,4.66-2.08,7.52c-1.32,2.76-3.26,5.63-5.64,8.71c-1.98,2.55-4,5.11-6.43,7.46
			c-2.66,2.56-5.51,4.82-8.46,6.83c-7.98,5.39-16.83,9.43-26.56,12c-9.84,2.61-21.12,3.89-33.78,3.89
			c-26.2,0-44.46-6.11-55.07-18.12c-10.62-12.01-16.07-27.65-16.06-47.13c0-2.38,0-4.71,0-7.09s0.27-4.76,0.42-7.14
			c0.12-2.16,0-4.44,0-6.82c0-2.44,0-4.88,0-7.25l0.01-16.89l0.05-52.96c-1.54,0-3.15-0.08-4.83,0c-1.61,0.08-3.22,0.28-4.82,0.28
			c-1.87,0-3.64-0.1-5.16,0c-1.69,0.1-3.29,0.32-4.9,0.32c-3.48,0-6.03-0.44-7.64-1.31c-1.61-0.87-2.4-2.28-2.4-4.22
			c0-2.22,0.84-3.75,2.47-4.87c1.32-0.88,3.56-1.35,6.77-1.35c1.07,0,2.47-0.05,4.02,0.32c1.41,0.33,2.69,0.92,4.03,1.35h0.8
			c1.62,0.44,3.26,0.65,4.76,0.97c1.44,0.32,2.62,0.66,3.68,0.66c1.07,0,1.88-0.22,2.41-0.66
			C1936.3,1198.08,1936.55,1197.53,1936.55,1196.72 M2343.62,1066.67c-6.08,0-11.86,1.54-17.39,4.6c-5.52,3.07-9.9,7.37-13.12,12.9
			c-3.22,5.54-4.84,11.48-4.84,17.84c0,9.78,3.44,18.12,10.33,25.02c6.9,6.9,15.24,10.33,25.02,10.33c9.81,0,18.17-3.43,25.06-10.3
			c6.9-6.88,10.34-15.22,10.34-25.04c0-9.81-3.44-18.15-10.34-25.02C2361.79,1070.11,2353.43,1066.67,2343.62,1066.67
			 M2343.62,1069.77c-5.72,0-11.07,1.42-16.04,4.27c-4.99,2.86-8.92,6.77-11.81,11.69c-2.96,5.07-4.44,10.51-4.44,16.31
			c0,8.98,3.13,16.61,9.41,22.88c6.26,6.27,13.9,9.41,22.87,9.41c8.93,0,16.56-3.14,22.86-9.44c6.32-6.3,9.47-13.92,9.47-22.86
			c0-5.8-1.47-11.24-4.41-16.31c-2.92-5.06-6.93-8.99-11.97-11.78C2354.52,1071.16,2349.19,1069.77,2343.62,1069.77
			 M2325.27,1080.32v1.78c2.19,0.03,3.57,0.64,4.12,1.8c0.31,0.68,0.49,2.31,0.49,4.94v26.05c0,2.38-0.1,3.92-0.3,4.59
			c-0.42,1.52-2.04,2.29-4.89,2.29v1.71h18.26v-1.71c-3.52,0-5.48-1.02-5.86-3.08v-15.41h3.77l14.73,20.2h9.14v-1.71
			c-2.03-0.13-4.03-1.58-6-4.35l-10.47-14.87c7.39-1.8,11.09-5.5,11.09-11.09c0-3.75-1.62-6.63-4.84-8.63
			c-2.71-1.66-6.05-2.51-10.02-2.51H2325.27z M2337.1,1101.09v-17.81c1.46-0.49,2.86-0.73,4.22-0.73c2.84,0,5.22,0.88,7.14,2.65
			c1.92,1.74,2.88,4.03,2.88,6.84c0,6.03-4.25,9.06-12.73,9.06H2337.1z M756.6,1267.7c-5.63-2.17-10.85-4-15.68-5.52
			c-4.89-1.57-9.59-2.76-14.14-3.57c-4.56-0.87-9.25-1.51-14.08-1.89c-4.82-0.27-10.04-0.44-15.68-0.44
			c-26.81,0-48.86,5.52-66.29,16.57c-17.77,11.25-26.63,25.6-26.64,42.91c0,17.1,7.89,31.49,23.7,43.18
			c15.87,11.69,35.04,17.52,57.55,17.54c5.36,0,10.72-0.33,16.02-0.97c5.09-0.65,10.18-1.41,15.28-2.28
			c6.43-1.73,13.01-4.01,19.78-6.82c6.36-2.6,13.13-5.84,20.11-9.74l-0.01,16.55h110.18c-1.41-1.95-2.61-3.79-3.62-5.58
			c-1.07-1.46-2.01-2.97-2.88-4.48c-1.81-3.9-3.01-8.34-3.6-13.32c-0.54-4.76-0.8-12.12-0.8-22.03v-2.32l0.45-60.39
			c0.01-18.39-3.06-32.46-9.23-42.15c-6.15-9.58-21.43-16.62-45.82-21.16c-9.11-1.73-19.03-3.08-29.75-4.23
			c-11-0.8-21.98-1.34-32.98-1.56h-2.75h-2.88c-15.28,0-28.69,0.76-40.21,2.26c-11.53,1.53-22.12,4.12-31.71,7.8
			c-4.09,1.46-7.7,2.98-10.93,4.55c-3.49,1.72-6.56,3.35-9.25,4.82c-2.95,1.94-5.23,3.89-6.84,5.83c-1.61,2.01-2.36,3.85-2.36,5.58
			c0,2.16,1.21,4.11,3.62,5.79c2.08,1.73,4.76,2.6,8.04,2.6c2.61,0,5.71-1.51,9.25-4.49c3.22-3.03,7.58-6.38,13.21-10.06
			c5.64-3.51,12.74-6.77,21.32-9.8c8.31-2.98,18.97-4.49,31.84-4.49c15.48,0,25.67,1.95,30.55,5.8c4.49,3.89,6.9,12.22,7.22,25.04
			L756.6,1267.7z M756.99,1279.06l-0.44,64.88c-2.68,2.21-5.64,4.16-8.92,5.89c-3.22,1.73-6.45,3.25-9.66,4.49
			c-3.75,1.79-7.51,3.08-11.26,4.01c-3.75,0.81-7.1,1.24-10.05,1.24c-5.64,0-9.52-1.07-11.67-3.25c-2.07-1.95-3.14-5.63-3.13-11.03
			v-7.84l0.02-37.94c0.01-13.21,0.96-21.66,2.76-25.33c1.88-3.47,6.65-5.19,14.15-5.19c6.43-0.01,12.67,0.97,18.83,2.91
			c5.9,1.95,11.66,4.01,17.29,6.17c0.27,0.23,0.67,0.33,1.2,0.33C756.46,1278.62,756.73,1278.84,756.99,1279.06 M1791.72,1267.7
			l0.02-30.47c-0.33-12.82-2.74-21.15-7.22-25.04c-4.89-3.85-15.07-5.8-30.55-5.8c-12.88,0-23.53,1.51-31.85,4.49
			c-8.58,3.03-15.69,6.28-21.31,9.8c-5.64,3.69-10,7.04-13.21,10.06c-3.55,2.98-6.64,4.49-9.25,4.49c-3.28,0-5.96-0.87-8.04-2.6
			c-2.4-1.68-3.62-3.63-3.62-5.79c0-1.73,0.74-3.57,2.36-5.58c1.59-1.94,3.88-3.89,6.84-5.83c2.68-1.47,5.76-3.1,9.25-4.82
			c3.21-1.57,6.84-3.1,10.93-4.55c9.58-3.67,20.17-6.27,31.7-7.8c11.53-1.5,24.94-2.26,40.22-2.26h2.88h2.75
			c10.99,0.22,21.98,0.76,32.97,1.56c10.73,1.14,20.64,2.5,29.76,4.23c24.39,4.54,39.67,11.59,45.82,21.16
			c6.17,9.69,9.23,23.76,9.23,42.15l-0.45,60.39v2.32c-0.01,9.91,0.25,17.27,0.79,22.03c0.6,4.98,1.8,9.41,3.6,13.32
			c0.88,1.51,1.81,3.03,2.89,4.48c1,1.79,2.21,3.63,3.62,5.58h-110.18l0.01-16.55c-6.98,3.89-13.75,7.14-20.12,9.74
			c-6.76,2.81-13.33,5.08-19.78,6.82c-5.09,0.87-10.18,1.63-15.27,2.28c-5.3,0.64-10.66,0.97-16.02,0.97
			c-22.53-0.01-41.68-5.84-57.56-17.54c-15.8-11.69-23.7-26.08-23.69-43.18c0.01-17.32,8.87-31.66,26.64-42.91
			c17.43-11.04,39.48-16.57,66.29-16.57c5.63,0,10.85,0.17,15.68,0.44c4.83,0.38,9.52,1.03,14.08,1.89c4.55,0.81,9.24,2,14.14,3.57
			C1780.86,1263.7,1786.09,1265.53,1791.72,1267.7 M1792.11,1279.06c-0.27-0.22-0.53-0.44-0.88-0.65c-0.53,0-0.94-0.1-1.2-0.33
			c-5.63-2.16-11.39-4.22-17.28-6.17c-6.17-1.94-12.41-2.92-18.84-2.91c-7.5,0-12.26,1.72-14.14,5.19
			c-1.81,3.67-2.76,12.12-2.76,25.33l-0.02,37.94l-0.01,7.84c0,5.41,1.06,9.08,3.14,11.03c2.15,2.17,6.03,3.25,11.66,3.25
			c2.96,0,6.31-0.43,10.06-1.24c3.74-0.92,7.5-2.22,11.26-4.01c3.21-1.25,6.43-2.76,9.65-4.49c3.29-1.73,6.24-3.68,8.92-5.89
			L1792.11,1279.06z"/>
		<path class="st2" d="M2261.72,1110.64l158.88,285.34h-137.28l-18.82-36.62l-11.31,0.02l-114.19,0.16l-3.92,0.01l-13.38,24.07
			c-2.14,2.96-2.6,6.71-5.31,9.95c-1.61,1.91-3.65,2.85-6.09,2.85c-1.89,0-9.23-0.6-10.37-1.69c-1.22-1.16-1.96-2.23-1.98-3.59
			c0-2.16-0.65-2.9,2.01-8.32c2.67-5.43,5.8-11.11,9.38-17.08c0.28-0.81,0.68-1.62,1.14-2.51c0.28-0.47,0.68-1.02,1.22-1.56
			c2.97-4.89,5.81-9.48,8.5-13.83c2.71-4.34,4.74-7.6,6.16-9.83l100.01-168.82c1.89-3.26,3.93-6.58,6.16-10.11
			c1.88-3.26,3.78-6.5,5.6-9.76C2245.96,1136.49,2254.31,1123.68,2261.72,1110.64 M2204.32,1241.62l-3.92,6.55l-52.74,90.24
			l-4.05,7.39c37.52-0.06,69.14,0.29,106.65,0.24l6.57-0.43L2204.32,1241.62z"/>
		<path class="st2" d="M512.61,1113.6l3.3,10.7l15.77,56.29l23.93,83.69l19.73,66.65l17.33,60.44l2.49,7.87l-119.49,0.17
			l-38.03-143.24l-80.55,126.03l-79.89-116.15c-5.13,17.6-9.73,35.49-13.99,53.44c-4.52,17.95-8.51,35.9-11.97,53.85
			c0,0.28,0,0.62,0,1.18c-0.27,0.62-0.4,1.18-0.4,1.72c-0.25,1.66-0.53,3.38-0.8,5.38c-0.25,2.22-0.8,4.25-1.26,6.15
			c-1.13,4.67-0.97,5.72-2.95,9.56c-2.02,3.95-8.95,2.46-13.52,2.46c-3.48,0.01-8.18-1.56-8.19-6.03
			c-0.01-6.32,2.25-10.94,3.88-16.76l11.99-43.09l21.19-74.65l19.2-68.29l17.58-62.63l4-14.43L410,1274.03L512.61,1113.6z"/>
	</g>
</g>
</svg>
