<?xml version="1.0" encoding="utf-8"?>
<!-- Generator: Adobe Illustrator 28.1.0, SVG Export Plug-In . SVG Version: 6.00 Build 0)  -->
<svg version="1.1" id="Layer_1" xmlns="http://www.w3.org/2000/svg" xmlns:xlink="http://www.w3.org/1999/xlink" x="0px" y="0px"
	 viewBox="0 0 1024 1024" style="enable-background:new 0 0 1024 1024;" xml:space="preserve">
<style type="text/css">
	.st0{fill-rule:evenodd;clip-rule:evenodd;fill:#231F20;}
	.st1{fill-rule:evenodd;clip-rule:evenodd;fill:#6FBE44;}
</style>
<g>
	<g>
		<path class="st0" d="M202.9,462l1.3,4.1l6,21.6l9.1,32l7.5,25.5l6.6,23.1l1,3l-45.7,0.1l-14.5-54.8l-30.8,48.2l-30.6-44.5
			c-2,6.7-3.7,13.6-5.4,20.4c-1.7,6.9-3.3,13.7-4.6,20.6v0.5c-0.1,0.2-0.2,0.5-0.2,0.7c-0.1,0.7-0.2,1.3-0.3,2.1
			c-0.1,0.8-0.3,1.6-0.5,2.4c-0.4,1.8-0.4,2.2-1.1,3.7c-0.8,1.5-3.4,1-5.2,1c-1.3,0-3.1-0.6-3.1-2.3c0-2.4,0.8-4.2,1.5-6.4l4.6-16.5
			l8.1-28.6l7.3-26.1l6.7-24l1.5-5.5l41.3,61.3L202.9,462z M872.5,460.8l60.8,109.2h-52.6l-7.2-14h-4.3l-43.7,0.1h-1.5l-5.1,9.2
			c-0.8,1.1-1,2.6-2,3.8c-0.6,0.7-1.4,1.1-2.3,1.1c-0.7,0-3.5-0.2-4-0.7c-0.5-0.5-0.8-0.8-0.8-1.4c0-0.8-0.3-1.1,0.8-3.2
			c1-2.1,2.2-4.2,3.6-6.5c0.1-0.3,0.3-0.6,0.4-1c0.1-0.2,0.3-0.4,0.5-0.6c1.1-1.9,2.2-3.6,3.3-5.3c1-1.6,1.8-2.9,2.4-3.8l38.3-64.6
			c0.7-1.2,1.5-2.5,2.4-3.9c0.7-1.3,1.5-2.5,2.1-3.8C866.5,470.7,869.7,465.8,872.5,460.8 M850.6,510.9l-1.5,2.5L828.9,548l-1.5,2.8
			c14.4,0,26.5,0.1,40.8,0.1l2.5-0.2L850.6,510.9z M96.3,577.2h830.6c3.1,0,5.6,0.7,5.6,1.5s-2.5,1.5-5.6,1.5H96.3
			c-3.1,0-5.6-0.7-5.6-1.5S93.2,577.2,96.3,577.2 M245.6,568.7H798c3.2,0,5.8,0.7,5.8,1.5s-2.6,1.5-5.8,1.5H245.6
			c-3.2,0-5.7-0.7-5.7-1.5C239.8,569.4,242.4,568.7,245.6,568.7 M125.5,450.7h740.4c2.8,0,5,0.8,5,1.7c0,0.9-2.3,1.7-5,1.7H125.5
			c-2.8,0-5-0.8-5-1.7C120.6,451.5,122.8,450.7,125.5,450.7 M210.9,459.5c-3.2,0-5.7,0.7-5.7,1.5s2.6,1.5,5.7,1.5h649.9
			c3.2,0,5.8-0.7,5.8-1.5s-2.6-1.5-5.8-1.5H210.9z M346.4,493.7v-6.9c0.8-0.2,1.6-0.5,2.5-0.8c0.8-0.3,1.6-0.5,2.4-0.7
			c5.8-1.9,11.5-3.9,17.3-5.8c5.6-2,11.2-4.3,16.6-6.9c-0.2,3.5-0.4,7.1-0.6,10.7c-0.2,3.5-0.3,7.2-0.3,10.8c1,0,2.1,0,3.1,0
			c0.9,0,1.9,0,2.9-0.1c0.9,0,1.9,0,2.9-0.1c0.9-0.1,1.9-0.2,2.9-0.3h0.6h0.7c0.9,0.1,1.8,0.3,2.6,0.5c0.7,0.3,1.1,1,1,2
			c0,0.8-0.3,1.3-0.9,1.6c-0.6,0.4-1.5,0.6-2.6,0.6s-2.2,0-3.2-0.1c-1.1,0-2.3,0-3.4-0.1c-1.1-0.1-2.2-0.2-3.2-0.3h-3.4
			c-0.1,2.8-0.2,4.9-0.2,6.5c0,1.6,0,3.2,0,4.6v0.4c0,0.2,0,0.3,0,0.3c0,3,0,6,0.2,9c0,3.1,0,6.1,0.2,9.1c0.1,3.1,0.2,6.1,0.3,9.1
			c0,3.1,0,6.1,0,9.1s0.3,5.1,0.9,6.2c0.5,1.1,1.4,1.8,2.8,1.8c0.5,0,1.1-0.1,1.7-0.4c0.7-0.2,1.3-0.4,1.9-0.7
			c1.3-0.7,2.6-1.8,3.8-3.2c1.2-1.3,2.3-2.8,3.1-4.5c0.2-0.4,0.4-0.8,0.6-1.1c0.1-0.3,0.3-0.5,0.5-0.7c0.4-0.6,0.8-1,1.2-1.2
			s1-0.3,1.5-0.3c0.8,0,1.5,0.2,1.8,0.6c0.4,0.4,0.7,1,0.7,1.7c0,0.8-0.3,1.8-0.8,2.9c-0.5,1.1-1.2,2.2-2.1,3.3
			c-0.7,1-1.5,2-2.4,2.9c-1,1-2.1,1.8-3.3,2.6c-3.1,2.1-6.4,3.6-10.1,4.6c-3.8,1-8.1,1.5-12.9,1.5c-10,0-17.1-2.3-21.1-6.9
			c-4.1-4.6-6.2-10.6-6.2-18v-2.7c0-0.9,0-1.8,0.2-2.8c0-0.8,0-1.7,0-2.6v-2.8v-6.5v-21.7h-1.9c-0.6,0.1-1.2,0.1-1.8,0.1h-2
			c-0.7,0.1-1.3,0.1-1.9,0.1c-1.3,0-2.3-0.2-2.9-0.5c-0.6-0.3-0.9-0.9-0.9-1.6c0-0.8,0.3-1.5,1-1.9c0.5-0.3,1.3-0.5,2.6-0.5
			c0.4,0,0.9,0,1.5,0.1c0.5,0.2,1,0.3,1.5,0.5h0.3c0.6,0.2,1.2,0.3,1.8,0.4c0.5,0.2,1,0.3,1.4,0.3c0.4,0,0.7-0.1,0.9-0.3
			C346.3,494.3,346.4,494,346.4,493.7 M469,519.8v-11.7c-0.1-4.9-1-8.1-2.8-9.6c-1.9-1.5-5.8-2.2-11.7-2.2c-4.9,0-9,0.6-12.2,1.7
			c-3.3,1.1-6,2.4-8.2,3.8c-2.1,1.4-3.8,2.7-5.1,3.9c-1.4,1.1-2.5,1.7-3.5,1.7c-1.3,0-2.3-0.3-3.1-1c-0.9-0.7-1.4-1.4-1.4-2.2
			c0-0.7,0.3-1.4,0.9-2.1c0.6-0.7,1.5-1.5,2.6-2.2c1-0.6,2.2-1.2,3.5-1.8c1.2-0.6,2.6-1.2,4.2-1.8c3.7-1.4,7.7-2.4,12.1-3
			c4.4-0.6,9.5-0.9,15.4-0.9h1.1h1.1c4.2,0.1,8.4,0.3,12.6,0.6c4.1,0.4,7.9,1,11.4,1.6c9.3,1.7,15.2,4.4,17.5,8.1
			c2.4,3.7,3.5,9.1,3.5,16.2L507,542v0.9c0,3.8,0.1,6.6,0.3,8.4c0.2,1.9,0.7,3.6,1.4,5.1c0.3,0.6,0.7,1.1,1.1,1.7
			c0.4,0.7,0.8,1.4,1.4,2.1H469v-6.4c-2.7,1.5-5.3,2.8-7.7,3.7c-2.6,1.1-5.1,2-7.6,2.6c-2,0.3-3.9,0.6-5.9,0.9
			c-2,0.2-4.1,0.4-6.1,0.4c-8.6,0-16-2.2-22-6.7c-6-4.5-9.1-10-9.1-16.5c0-6.6,3.4-12.1,10.2-16.4c6.7-4.2,15.1-6.4,25.4-6.4
			c2.1,0,4.2,0.1,6,0.2c1.8,0.2,3.6,0.4,5.4,0.7c1.8,0.3,3.5,0.8,5.4,1.4C464.9,518.3,466.9,519,469,519.8 M469.2,524.2
			c-0.1-0.1-0.2-0.2-0.3-0.3c-0.2,0-0.3,0-0.5-0.1c-2.1-0.8-4.4-1.6-6.6-2.4c-2.4-0.7-4.7-1.1-7.2-1.1c-2.9,0-4.7,0.7-5.4,2
			c-0.7,1.4-1.1,4.6-1.1,9.7v14.5v3c0,2.1,0.4,3.5,1.2,4.2c0.8,0.8,2.3,1.2,4.5,1.2c1.1,0,2.4-0.2,3.9-0.5c1.5-0.3,2.9-0.8,4.3-1.5
			c1.2-0.5,2.4-1.1,3.7-1.7c1.3-0.7,2.4-1.4,3.4-2.3L469.2,524.2z M562.8,494v8.3c4.2-2.4,8.3-4.4,12.2-5.9
			c3.8-1.5,7.5-2.6,11.2-3.3c1.8-0.3,3.5-0.6,5.2-0.7c1.8-0.2,3.5-0.3,5.2-0.3c6.7,0,12.4,1.2,17.1,3.6c4.7,2.4,7.7,5.6,9,9.6
			c0.1,0.5,0.3,1,0.4,1.4c0.1,0.5,0.2,1,0.3,1.4c0.2,1.1,0.3,2.4,0.5,3.8c0,1.4,0,3.4,0,6c0,2.2,0,4.3,0,6.5c0,2.2,0,4.3,0,6.5
			c-0.1,2.2-0.2,4.3-0.2,6.5c0,2.2,0,4.3,0,6.5c0,2.8,0,5.5,0,8.2c0,2.8,0,5.5,0.2,8.2h-38.2c0.1-1.9,0.2-3.8,0.2-5.7
			c0-1.8,0-3.7,0-5.5v-1.5c0-0.5,0-1,0.2-1.4c0-0.5,0-1,0-1.5c0-0.4,0-0.9,0-1.4l0.2-12.4c0-2.1,0-4.1,0-6.2c0-2.1,0-4.2,0-6.4
			c-0.1-2.1-0.2-4.2-0.2-6.2c0-2.1,0-4.1,0-6.2c0-2-0.5-3.4-1.4-4.4c-1-0.8-2.5-1.2-4.6-1.2c-2.3,0-4.9,0.6-7.8,1.8
			c-2.9,1.1-6.1,2.9-9.4,5.1v2.5l-0.2,17.1c0,1.6,0,3.3,0,4.9c-0.1,1.6-0.2,3.3-0.2,5c0,1.6,0,3.3,0,4.9c0,1.6,0,3.3,0,4.9
			c0,2.3,0,4.6,0.2,6.9c0,2.3,0,4.6,0.2,6.9h-38.5c0-3.4,0.1-6.8,0.2-10.2c0-3.3,0.1-6.7,0.2-10c0-3.4,0-6.7,0.2-10.1
			c0-3.3,0-6.7,0-10c0-2.2,0-4.3,0-6.5c-0.1-2.2-0.2-4.3-0.2-6.6c-0.1-2.1-0.2-4.3-0.2-6.5c-0.1-2.1-0.2-4.3-0.2-6.5L562.8,494
			L562.8,494z M746.3,493.8v-6.9c0.8-0.2,1.6-0.5,2.5-0.8c0.8-0.3,1.6-0.5,2.4-0.7c5.8-1.9,11.6-3.8,17.3-5.8
			c5.6-2,11.2-4.3,16.6-6.9c-0.2,3.5-0.4,7.1-0.6,10.7c-0.2,3.5-0.3,7.2-0.3,10.8h3.1c0.9,0,1.9-0.1,2.9-0.1c0.9,0,1.9,0,2.9-0.1
			c0.9-0.1,1.9-0.2,2.9-0.3c0.2,0,0.4,0,0.6,0c0.2,0,0.4,0,0.7,0c0.9,0.1,1.8,0.2,2.6,0.5c0.7,0.3,1,1,1,2c0,0.8-0.3,1.3-0.9,1.6
			c-0.7,0.4-1.5,0.6-2.6,0.6c-1.1,0-2.2-0.1-3.2-0.1c-1.1,0-2.3,0-3.4-0.1c-1.1-0.1-2.2-0.2-3.2-0.3c-1.1,0-2.3,0-3.4,0
			c-0.1,2.7-0.2,4.9-0.2,6.5c0,1.6,0,3.2,0,4.6c0,0.2,0,0.3,0,0.4c0,0.2,0,0.3,0,0.3c0,3,0.1,4.5,0.2,7.5c0,3.1,0,6.1,0.2,9.1
			c0.1,3.1,0.3,6.1,0.3,9.1c0,3.1,0,6.1,0,9.1s0.3,5.1,0.9,6.2c0.5,1.1,1.4,1.8,2.8,1.8c0.5,0,1.1-0.2,1.7-0.4
			c0.6-0.2,1.3-0.4,1.9-0.7c1.3-0.7,2.6-1.8,3.9-3.2c1.2-1.3,2.3-2.8,3.1-4.5c0.2-0.4,0.4-0.8,0.6-1.1c0.1-0.2,0.3-0.5,0.5-0.7
			c0.4-0.6,0.8-1,1.2-1.2c0.4-0.2,1-0.3,1.5-0.3c0.8,0,1.5,0.2,1.8,0.6c0.4,0.4,0.7,1,0.7,1.8c0,0.8-0.3,1.8-0.8,2.9
			c-0.5,1.1-1.3,2.1-2.1,3.3c-0.8,1-1.5,2-2.4,2.9c-1,1-2.1,1.8-3.3,2.6c-3.1,2.1-6.4,3.6-10.2,4.6s-8.1,1.5-12.9,1.5
			c-10,0-17-2.3-21.1-6.9s-6.2-10.6-6.2-18c0-0.9,0-1.8,0-2.7s0.1-1.8,0.2-2.7c0-0.8,0-1.7,0-2.6c0-0.9,0-1.9,0-2.8V518l0-20.3
			c-0.6,0-1.2,0-1.8,0c-0.6,0-1.2,0.1-1.8,0.1c-0.7,0-1.4,0-2,0c-0.7,0-1.3,0.1-1.9,0.1c-1.3,0-2.3-0.2-2.9-0.5
			c-0.6-0.3-0.9-0.9-0.9-1.6c0-0.8,0.3-1.5,1-1.9c0.5-0.3,1.4-0.5,2.6-0.5c0.4,0,1,0,1.5,0.1c0.5,0.1,1,0.3,1.5,0.5h0.3
			c0.6,0.2,1.3,0.3,1.8,0.4c0.5,0.1,1,0.3,1.4,0.3c0.4,0,0.7-0.1,0.9-0.3C746.2,494.3,746.3,494.1,746.3,493.8 M902.1,444
			c-2.3,0-4.6,0.6-6.7,1.8c-2.1,1.2-3.8,2.8-5,4.9c-1.2,2.1-1.8,4.4-1.8,6.8c0,3.8,1.3,6.9,3.9,9.6c2.6,2.6,5.8,3.9,9.6,3.9
			c3.8,0,7-1.3,9.6-3.9c2.6-2.6,3.9-5.8,3.9-9.6s-1.3-7-3.9-9.6C909,445.3,905.8,444,902.1,444 M902.1,445.2c-2.2,0-4.2,0.5-6.1,1.6
			c-1.9,1.1-3.4,2.6-4.5,4.5c-1.1,2-1.7,4-1.7,6.2c0,3.4,1.2,6.4,3.6,8.8c2.4,2.4,5.3,3.6,8.8,3.6c3.4,0,6.4-1.2,8.8-3.6
			c2.4-2.4,3.6-5.3,3.6-8.8c0-2.2-0.6-4.3-1.7-6.2c-1.1-2-2.6-3.4-4.6-4.5C906.3,445.7,904.2,445.2,902.1,445.2 M895.1,449.2v0.7
			c0.8,0,1.4,0.2,1.6,0.7c0.1,0.3,0.2,0.9,0.2,1.9v10c0,0.9,0,1.5-0.1,1.8c-0.2,0.6-0.8,0.9-1.9,0.9v0.7h7v-0.7
			c-1.3,0-2.1-0.4-2.3-1.2V458h1.5l5.6,7.7h3.5v-0.7c-0.8,0-1.5-0.6-2.3-1.6l-4-5.7c2.8-0.7,4.2-2.1,4.2-4.2c0-1.5-0.6-2.5-1.8-3.3
			c-1-0.7-2.3-1-3.8-1L895.1,449.2L895.1,449.2z M899.6,457.2v-6.8c0.6-0.2,1.1-0.3,1.6-0.3c1.1,0,2,0.3,2.7,1
			c0.7,0.7,1.1,1.5,1.1,2.6c0,2.3-1.6,3.5-4.9,3.5L899.6,457.2L899.6,457.2z M294.6,520.9c-2.1-0.8-4.1-1.5-6-2.1
			c-1.9-0.6-3.7-1.1-5.4-1.4c-1.8-0.3-3.5-0.6-5.4-0.7c-1.8-0.1-3.8-0.2-6-0.2c-10.3,0-18.7,2.1-25.4,6.4
			c-6.8,4.3-10.2,9.8-10.2,16.4c0,6.5,3,12.1,9.1,16.5c6.1,4.5,13.4,6.7,22,6.7c2.1,0,4.1-0.1,6.1-0.4c2-0.3,3.9-0.5,5.9-0.9
			c2.4-0.7,5-1.5,7.6-2.6c2.4-1,5-2.2,7.7-3.7v6.4h42.2c-0.5-0.7-1-1.5-1.4-2.1c-0.4-0.6-0.8-1.1-1.1-1.7c-0.7-1.5-1.1-3.2-1.4-5.1
			c-0.2-1.8-0.3-4.6-0.3-8.4v-0.9l0.2-23.1c0-7-1.2-12.4-3.5-16.2c-2.4-3.7-8.2-6.4-17.5-8.1c-3.5-0.7-7.3-1.2-11.4-1.6
			c-4.2-0.3-8.4-0.5-12.6-0.6h-1.1h-1.1c-5.9,0-11,0.3-15.4,0.9c-4.4,0.6-8.5,1.6-12.1,3c-1.6,0.6-2.9,1.1-4.2,1.8
			c-1.3,0.7-2.5,1.3-3.5,1.8c-1.1,0.7-2,1.5-2.6,2.2c-0.6,0.8-0.9,1.5-0.9,2.1c0,0.8,0.5,1.6,1.4,2.2c0.8,0.7,1.8,1,3.1,1
			c1,0,2.2-0.6,3.5-1.7c1.2-1.1,2.9-2.4,5.1-3.9c2.1-1.3,4.9-2.6,8.2-3.8c3.2-1.1,7.3-1.7,12.2-1.7c5.9,0,9.8,0.7,11.7,2.2
			c1.7,1.5,2.6,4.7,2.8,9.6L294.6,520.9z M294.8,525.3l-0.2,24.8c-1,0.8-2.1,1.6-3.4,2.3c-1.2,0.7-2.5,1.2-3.7,1.7
			c-1.5,0.7-2.9,1.2-4.3,1.5c-1.5,0.3-2.7,0.5-3.8,0.5c-2.1,0-3.6-0.4-4.5-1.2c-0.8-0.7-1.2-2.1-1.2-4.2v-3v-14.5
			c0-5.1,0.4-8.3,1.1-9.7c0.7-1.3,2.6-2,5.4-2c2.4,0,4.9,0.4,7.2,1.1c2.3,0.7,4.5,1.5,6.6,2.4c0.1,0.1,0.3,0.1,0.5,0.1
			C294.6,525.1,294.6,525.2,294.8,525.3 M690.8,520.9v-11.7c-0.1-4.9-1-8.1-2.8-9.6c-1.9-1.5-5.8-2.2-11.7-2.2
			c-4.9,0-9,0.6-12.2,1.7c-3.3,1.1-6,2.4-8.2,3.8c-2.1,1.4-3.8,2.7-5.1,3.9c-1.4,1.1-2.5,1.7-3.5,1.7c-1.3,0-2.3-0.3-3.1-1
			c-0.9-0.7-1.4-1.4-1.4-2.2c0-0.7,0.3-1.4,0.9-2.1c0.6-0.7,1.5-1.5,2.6-2.2c1-0.6,2.2-1.2,3.5-1.8c1.2-0.6,2.6-1.2,4.2-1.8
			c3.7-1.4,7.7-2.4,12.1-3c4.4-0.6,9.5-0.9,15.4-0.9h1.1h1.1c4.2,0.1,8.4,0.3,12.6,0.6c4.1,0.4,7.9,1,11.4,1.6
			c9.3,1.7,15.2,4.4,17.5,8.1c2.4,3.7,3.5,9.1,3.5,16.2l-0.2,23.1v0.9c0,3.8,0.1,6.6,0.3,8.4c0.2,1.9,0.7,3.6,1.4,5.1
			c0.3,0.6,0.7,1.1,1.1,1.7c0.4,0.7,0.8,1.4,1.4,2.1h-42.2V555c-2.7,1.5-5.3,2.7-7.7,3.7c-2.6,1.1-5.1,2-7.6,2.6
			c-2,0.3-3.9,0.6-5.9,0.9c-2,0.2-4.1,0.4-6.1,0.4c-8.6,0-16-2.2-22-6.7c-6-4.5-9.1-10-9.1-16.5c0-6.6,3.4-12.1,10.2-16.4
			c6.7-4.2,15.1-6.4,25.4-6.4c2.1,0,4.1,0.1,6,0.2c1.8,0.2,3.6,0.4,5.4,0.7c1.8,0.3,3.5,0.8,5.4,1.4
			C686.7,519.4,688.7,520.1,690.8,520.9 M691,525.3c-0.1-0.1-0.2-0.2-0.3-0.3c-0.2,0-0.3,0-0.5-0.1c-2.1-0.8-4.4-1.6-6.6-2.4
			c-2.4-0.7-4.7-1.1-7.2-1.1c-2.9,0-4.7,0.7-5.4,2c-0.7,1.4-1.1,4.6-1.1,9.7v14.5v3c0,2.1,0.4,3.5,1.2,4.2c0.8,0.8,2.3,1.2,4.5,1.2
			c1.1,0,2.4-0.2,3.9-0.5c1.4-0.3,2.9-0.8,4.3-1.5c1.2-0.5,2.4-1.1,3.7-1.7s2.4-1.4,3.4-2.3L691,525.3z"/>
		<path class="st1" d="M870.7,460.8L931.6,570H879l-7.2-14h-4.3l-43.7,0.1h-1.5l-5.1,9.2c-0.8,1.1-1,2.6-2,3.8
			c-0.6,0.7-1.4,1.1-2.3,1.1c-0.7,0-3.5-0.2-4-0.7c-0.5-0.5-0.8-0.8-0.8-1.4c0-0.8-0.2-1.1,0.8-3.2c1-2.1,2.2-4.2,3.6-6.5
			c0.1-0.3,0.3-0.6,0.4-1c0.1-0.2,0.3-0.4,0.5-0.6c1.1-1.9,2.2-3.6,3.3-5.3s1.8-2.9,2.4-3.8l38.3-64.6c0.7-1.3,1.5-2.5,2.4-3.9
			c0.7-1.3,1.5-2.5,2.1-3.8C864.7,470.7,867.9,465.8,870.7,460.8 M848.8,510.9l-1.5,2.5L827.1,548l-1.6,2.8
			c14.4,0,26.5,0.1,40.8,0.1l2.5-0.2L848.8,510.9z"/>
		<path class="st1" d="M201.2,462l1.3,4.1l6,21.6l9.1,32l7.5,25.5l6.6,23.1l1,3l-45.7,0.1l-14.5-54.8l-30.9,48.2l-30.6-44.5
			c-2,6.7-3.7,13.6-5.4,20.4c-1.7,6.9-3.3,13.7-4.6,20.6c0,0.1,0,0.2,0,0.5c-0.1,0.2-0.2,0.5-0.2,0.7c-0.1,0.7-0.2,1.3-0.3,2.1
			c-0.1,0.8-0.3,1.6-0.5,2.4c-0.4,1.8-0.4,2.2-1.1,3.7c-0.8,1.5-3.4,1-5.2,1c-1.3,0-3.1-0.6-3.1-2.3c0-2.4,0.8-4.2,1.5-6.4l4.6-16.5
			l8.1-28.6l7.3-26.1l6.7-24l1.5-5.5l41.4,61.2L201.2,462z"/>
	</g>
</g>
</svg>
