<?xml version="1.0" encoding="utf-8"?>
<!-- Generator: Adobe Illustrator 28.1.0, SVG Export Plug-In . SVG Version: 6.00 Build 0)  -->
<svg version="1.1" id="Layer_1" xmlns="http://www.w3.org/2000/svg" xmlns:xlink="http://www.w3.org/1999/xlink" x="0px" y="0px"
	 viewBox="0 0 1024 1024" style="enable-background:new 0 0 1024 1024;" xml:space="preserve">
<style type="text/css">
	.st0{fill-rule:evenodd;clip-rule:evenodd;fill:#FFFFFF;}
	.st1{fill-rule:evenodd;clip-rule:evenodd;fill:#231F20;}
	.st2{fill-rule:evenodd;clip-rule:evenodd;fill:#6FBE44;}
</style>
<rect class="st0" width="1024" height="1024"/>
<g>
	<g>
		<path class="st1" d="M294.9,476.9l0.9,2.9l4.3,15.1l6.4,22.5l5.3,17.9l4.6,16.3l0.7,2.1l-32.1,0.1l-10.2-38.5l-21.6,33.9
			l-21.5-31.2c-1.3,4.7-2.6,9.6-3.8,14.4c-1.3,4.8-2.3,9.7-3.2,14.5v0.4c-0.1,0.2-0.1,0.4-0.1,0.4c-0.1,0.4-0.2,0.9-0.2,1.4
			c-0.1,0.6-0.2,1.2-0.4,1.7c-0.3,1.3-0.3,1.5-0.8,2.6c-0.5,1.1-2.4,0.7-3.7,0.7c-1,0-2.2-0.4-2.2-1.6c0-1.7,0.6-3,1.1-4.6l3.2-11.6
			l5.7-20.1l5.2-18.3l4.7-16.8l1.1-3.8l29.1,43L294.9,476.9z M765.2,476.1l42.7,76.7H771l-5.1-9.8h-3l-30.7,0.1h-1.1l-3.6,6.4
			c-0.5,0.8-0.7,1.8-1.4,2.7c-0.4,0.5-1,0.7-1.6,0.7c-0.5,0-2.5-0.2-2.8-0.4c-0.4-0.4-0.5-0.6-0.5-1c0-0.6-0.2-0.8,0.5-2.2
			s1.5-3,2.5-4.6c0.1-0.2,0.2-0.4,0.3-0.7c0.1-0.2,0.2-0.3,0.4-0.4c0.8-1.3,1.5-2.6,2.3-3.7c0.7-1.2,1.3-2.1,1.7-2.6l26.9-45.4
			c0.5-0.9,1.1-1.8,1.7-2.7c0.5-0.9,1-1.8,1.5-2.6C761,483,763.2,479.6,765.2,476.1 M749.8,511.3l-1.1,1.8l-14.1,24.2l-1.1,2
			c10.1,0,18.6,0.1,28.7,0.1l1.8-0.1L749.8,511.3z M220,557.8h583.3c2.1,0,3.9,0.4,3.9,1.1s-1.8,1.1-3.9,1.1H220
			c-2.1,0-3.9-0.4-3.9-1.1C216.1,558.3,217.9,557.8,220,557.8 M324.9,551.9h388c2.2,0,4,0.4,4,1.1s-1.8,1.1-4,1.1h-388
			c-2.2,0-4-0.4-4-1.1S322.7,551.9,324.9,551.9 M240.6,469h519.9c2,0,3.5,0.5,3.5,1.2s-1.6,1.2-3.5,1.2H240.6c-2,0-3.5-0.5-3.5-1.2
			S238.6,469,240.6,469 M300.6,475.2c-2.2,0-4,0.4-4,1.1c0,0.6,1.8,1.1,4,1.1h456.4c2.2,0,4-0.4,4-1.1c0-0.6-1.8-1.1-4-1.1H300.6z
			 M395.7,499.2v-4.8c0.6-0.2,1.2-0.4,1.8-0.6c0.5-0.2,1.2-0.4,1.7-0.5c4-1.3,8.1-2.7,12.2-4.1c3.9-1.4,7.9-3,11.7-4.8
			c-0.2,2.5-0.3,5-0.4,7.5s-0.2,5-0.2,7.6c0.7,0,1.4,0,2.1,0c0.6,0,1.3,0,2.1-0.1c0.6,0,1.3,0,2.1-0.1c0.6-0.1,1.3-0.1,2.1-0.2h0.4
			h0.4c0.6,0.1,1.3,0.2,1.8,0.4c0.4,0.3,0.7,0.7,0.7,1.3c0,0.5-0.2,0.9-0.6,1.2c-0.4,0.3-1.1,0.4-1.9,0.4c-0.8,0-1.5,0-2.2-0.1
			c-0.8,0-1.6,0-2.3-0.1c-0.8-0.1-1.5-0.1-2.2-0.2h-2.3c-0.1,2-0.1,3.4-0.1,4.6c0,1.2,0,2.2,0,3.2v0.3c0,0.1,0,0.2,0,0.3
			c0,2.1,0,4.2,0.1,6.3c0,2.1,0,4.3,0.1,6.3c0.1,2.1,0.2,4.3,0.2,6.3c0,2.1,0,4.3,0,6.3s0.2,3.6,0.6,4.4c0.4,0.8,1,1.3,2,1.3
			c0.4,0,0.8-0.1,1.2-0.3c0.4-0.1,0.9-0.3,1.3-0.5c1-0.5,1.8-1.3,2.7-2.2s1.6-2,2.1-3.1c0.2-0.3,0.3-0.5,0.4-0.8
			c0.1-0.2,0.2-0.4,0.4-0.5c0.3-0.4,0.5-0.7,0.9-0.9c0.3-0.2,0.7-0.3,1.1-0.3c0.6,0,1,0.2,1.3,0.4c0.3,0.3,0.4,0.7,0.4,1.3
			c0,0.6-0.2,1.3-0.5,2.1c-0.4,0.7-0.9,1.5-1.5,2.3c-0.5,0.7-1.1,1.3-1.7,2.1c-0.7,0.7-1.5,1.3-2.3,1.8c-2.1,1.4-4.6,2.5-7.2,3.2
			s-5.6,1.1-9.1,1.1c-7.1,0-12-1.6-14.8-4.8c-2.9-3.2-4.3-7.4-4.3-12.7v-1.9c0-0.6,0-1.3,0.1-2c0-0.6,0-1.2,0-1.8v-2v-4.6v-15.2
			h-1.3c-0.4,0.1-0.9,0.1-1.3,0.1h-1.4c-0.4,0.1-0.9,0.1-1.3,0.1c-1,0-1.6-0.1-2.1-0.4c-0.4-0.3-0.6-0.6-0.6-1.2
			c0-0.6,0.2-1,0.7-1.3c0.4-0.3,1-0.4,1.8-0.4c0.3,0,0.6,0,1.1,0.1c0.4,0.2,0.7,0.3,1.1,0.4h0.2c0.4,0.1,0.9,0.2,1.3,0.3
			c0.4,0.1,0.7,0.2,1,0.2s0.5-0.1,0.6-0.2C395.6,499.6,395.7,499.4,395.7,499.2 M481.9,517.6v-8.2c-0.1-3.4-0.7-5.7-2-6.7
			c-1.3-1-4-1.5-8.2-1.5c-3.5,0-6.3,0.4-8.6,1.3c-2.3,0.8-4.2,1.7-5.7,2.6c-1.5,1-2.7,1.9-3.6,2.7c-1,0.8-1.8,1.3-2.5,1.3
			c-0.9,0-1.6-0.3-2.1-0.7c-0.6-0.4-1-1-1-1.5c0-0.4,0.2-1,0.6-1.5c0.4-0.5,1.1-1.1,1.8-1.5c0.7-0.4,1.5-0.8,2.5-1.3
			c0.9-0.4,1.8-0.8,3-1.3c2.6-1,5.5-1.7,8.5-2.1s6.7-0.6,10.8-0.6h0.8h0.7c3,0.1,5.9,0.2,8.9,0.4c2.9,0.3,5.5,0.7,8,1.2
			c6.5,1.3,10.6,3.1,12.3,5.7s2.5,6.4,2.5,11.4l-0.1,16.3v0.6c0,2.7,0.1,4.6,0.2,5.9c0.2,1.3,0.4,2.5,1,3.6c0.3,0.4,0.4,0.8,0.8,1.3
			c0.3,0.4,0.6,1,1,1.5h-29.6v-4.5c-1.9,1.1-3.7,2-5.4,2.6c-1.8,0.7-3.6,1.3-5.4,1.8c-1.3,0.3-2.8,0.4-4.1,0.6
			c-1.4,0.2-2.9,0.3-4.3,0.3c-6.1,0-11.2-1.5-15.5-4.7c-4.3-3.1-6.3-7-6.3-11.6c0-4.6,2.4-8.5,7.2-11.5c4.6-3,10.6-4.5,17.8-4.5
			c1.5,0,3,0.1,4.2,0.1c1.3,0.1,2.6,0.3,3.8,0.5c1.3,0.2,2.5,0.5,3.8,1C478.9,516.5,480.4,516.9,481.9,517.6 M482,520.6
			c-0.1-0.1-0.2-0.1-0.3-0.2c-0.2,0-0.3,0-0.4-0.1c-1.5-0.6-3-1.2-4.6-1.7c-1.7-0.5-3.3-0.8-5.1-0.8c-2.1,0-3.3,0.4-3.8,1.4
			s-0.7,3.2-0.7,6.8v10.2v2.1c0,1.4,0.3,2.4,0.8,3c0.6,0.6,1.6,0.9,3.1,0.9c0.8,0,1.7-0.1,2.7-0.4c1-0.3,2.1-0.6,3-1.1
			c0.9-0.4,1.7-0.7,2.6-1.3c0.9-0.4,1.7-1,2.4-1.6L482,520.6z M547.7,499.3v5.9c3-1.7,5.8-3,8.6-4.1c2.7-1.1,5.3-1.8,7.9-2.3
			c1.3-0.2,2.4-0.4,3.7-0.5c1.3-0.2,2.5-0.2,3.7-0.2c4.6,0,8.7,0.8,12,2.5s5.5,3.9,6.3,6.7c0.1,0.4,0.2,0.7,0.3,1
			c0.1,0.4,0.2,0.7,0.2,1c0.2,0.8,0.3,1.7,0.4,2.6c0,1,0,2.4,0,4.3c0,1.5,0,3,0,4.6c0,1.5,0,3,0,4.6c-0.1,1.5-0.2,3-0.2,4.6
			s0,3,0,4.6c0,2,0,3.8,0,5.8s0,3.8,0.1,5.7h-26.8c0.1-1.3,0.1-2.7,0.1-4c0-1.3,0-2.6,0-3.8v-1c0-0.4,0-0.7,0.1-1c0-0.4,0-0.7,0-1.1
			c0-0.3,0-0.6,0-1l0.1-8.8c0-1.4,0-2.9,0-4.3c0-1.5,0-3,0-4.5c-0.1-1.5-0.1-3-0.1-4.4s0-2.9,0-4.4c0-1.4-0.4-2.4-1-3
			c-0.7-0.6-1.8-0.9-3.2-0.9c-1.6,0-3.5,0.4-5.5,1.3s-4.3,2.1-6.6,3.6v1.8l-0.1,12.1c0,1.2,0,2.3,0,3.4c-0.1,1.2-0.1,2.3-0.1,3.5
			c0,1.2,0,2.3,0,3.4c0,1.2,0,2.3,0,3.5c0,1.6,0,3.2,0.1,4.8c0,1.6,0,3.2,0.1,4.8h-27c0-2.4,0.1-4.8,0.2-7.2c0-2.3,0.1-4.6,0.1-7
			s0-4.7,0.1-7.2c0-2.3,0-4.6,0-7c0-1.5,0-3,0-4.6c-0.1-1.5-0.1-3-0.1-4.6c-0.1-1.5-0.1-3-0.1-4.6c-0.1-1.5-0.2-3-0.2-4.6
			L547.7,499.3L547.7,499.3z M676.5,499.2v-4.8c0.5-0.2,1.2-0.4,1.8-0.6c0.5-0.2,1.2-0.4,1.7-0.5c4-1.3,8.1-2.7,12.2-4.1
			c3.9-1.4,7.9-3,11.7-4.8c-0.2,2.5-0.3,5-0.4,7.5c-0.2,2.5-0.2,5-0.2,7.6h2.1c0.6,0,1.3-0.1,2.1-0.1c0.6,0,1.3,0,2.1-0.1
			c0.6-0.1,1.3-0.2,2.1-0.2c0.2,0,0.3,0,0.4,0c0.2,0,0.3,0,0.4,0c0.6,0.1,1.3,0.2,1.8,0.4c0.5,0.2,0.7,0.7,0.7,1.3
			c0,0.5-0.3,0.9-0.6,1.2c-0.4,0.3-1.1,0.4-1.9,0.4s-1.5-0.1-2.2-0.1c-0.8,0-1.6,0-2.4-0.1c-0.8-0.1-1.5-0.2-2.2-0.2
			c-0.8,0-1.6,0-2.3,0c-0.1,1.9-0.1,3.4-0.1,4.6c0,1.2,0,2.2,0,3.2c0,0.2,0,0.3,0,0.3c0,0.1,0,0.2,0,0.3c0,2.1,0.1,3.1,0.1,5.3
			s0,4.3,0.1,6.3c0.1,2.1,0.2,4.3,0.2,6.3c0,2.1,0,4.3,0,6.3s0.3,3.6,0.6,4.4c0.4,0.8,1,1.3,2,1.3c0.4,0,0.7-0.2,1.2-0.3
			c0.4-0.2,0.9-0.3,1.3-0.5c1-0.5,1.8-1.3,2.7-2.2c0.8-1,1.6-2,2.1-3.1c0.2-0.3,0.3-0.5,0.4-0.8c0.1-0.2,0.2-0.4,0.4-0.5
			c0.3-0.4,0.5-0.7,0.8-0.9c0.3-0.2,0.7-0.3,1.1-0.3c0.5,0,1,0.2,1.3,0.4s0.4,0.7,0.4,1.3c0,0.6-0.2,1.3-0.5,2.1
			c-0.4,0.7-0.9,1.5-1.5,2.3c-0.5,0.7-1.1,1.3-1.7,2.1c-0.7,0.7-1.5,1.3-2.3,1.8c-2.1,1.4-4.6,2.5-7.2,3.2c-2.6,0.7-5.6,1.1-9.1,1.1
			c-7.1,0-12-1.6-14.8-4.8c-2.9-3.2-4.3-7.4-4.3-12.7c0-0.6,0-1.3,0-1.9s0.1-1.3,0.1-1.9s0-1.2,0-1.8s0-1.3,0-2v-4.6V502
			c-0.4,0-0.9,0-1.3,0c-0.4,0-0.9,0.1-1.3,0.1c-0.5,0-1,0-1.4,0s-0.9,0.1-1.3,0.1c-1,0-1.6-0.1-2.1-0.4c-0.4-0.3-0.6-0.6-0.6-1.2
			c0-0.6,0.2-1,0.7-1.3c0.4-0.3,1-0.4,1.8-0.4c0.3,0,0.7,0,1.1,0.1c0.4,0.1,0.7,0.3,1.1,0.4h0.2c0.4,0.1,0.9,0.2,1.3,0.3
			s0.7,0.2,1,0.2c0.3,0,0.5-0.1,0.6-0.2C676.5,499.6,676.5,499.4,676.5,499.2 M785.9,464.3c-1.6,0-3.2,0.4-4.6,1.3
			c-1.5,0.8-2.7,2-3.5,3.5c-0.9,1.5-1.3,3.1-1.3,4.8c0,2.6,0.9,4.8,2.8,6.7c1.9,1.9,4.1,2.8,6.7,2.8c2.6,0,4.9-0.9,6.7-2.8
			c1.9-1.9,2.8-4.1,2.8-6.7c0-2.6-0.9-4.9-2.8-6.7C790.8,465.2,788.6,464.3,785.9,464.3 M785.9,465.1c-1.5,0-3,0.4-4.3,1.2
			c-1.3,0.8-2.4,1.8-3.1,3.1c-0.8,1.3-1.2,2.9-1.2,4.4c0,2.4,0.8,4.5,2.5,6.2c1.7,1.7,3.8,2.5,6.2,2.5s4.5-0.8,6.2-2.5
			s2.6-3.8,2.6-6.2c0-1.5-0.4-3-1.2-4.4c-0.8-1.3-1.9-2.4-3.2-3.1C788.9,465.5,787.4,465.1,785.9,465.1 M781,467.9v0.4
			c0.6,0,1,0.2,1.1,0.4c0.1,0.2,0.2,0.6,0.2,1.3v7c0,0.6,0,1.1-0.1,1.3c-0.1,0.4-0.5,0.6-1.3,0.6v0.4h4.9V479c-1,0-1.5-0.3-1.6-0.8
			v-4.1h1l3.9,5.5h2.4v-0.4c-0.5,0-1.1-0.4-1.6-1.2l-2.9-4c2-0.4,3-1.5,3-3c0-1-0.4-1.8-1.3-2.3c-0.7-0.4-1.6-0.7-2.7-0.7L781,467.9
			L781,467.9z M784.2,473.6v-4.8c0.4-0.2,0.8-0.2,1.2-0.2c0.7,0,1.4,0.3,1.9,0.7c0.5,0.4,0.8,1.1,0.8,1.8c0,1.6-1.2,2.4-3.4,2.4
			L784.2,473.6L784.2,473.6z M359.3,518.3c-1.5-0.6-2.9-1.1-4.2-1.5c-1.3-0.4-2.6-0.7-3.8-1c-1.3-0.3-2.5-0.4-3.8-0.5
			c-1.3-0.1-2.7-0.1-4.2-0.1c-7.2,0-13.1,1.5-17.8,4.5c-4.8,3-7.2,6.9-7.2,11.5c0,4.6,2.1,8.5,6.3,11.6c4.3,3.1,9.4,4.7,15.5,4.7
			c1.4,0,2.9-0.1,4.3-0.3c1.3-0.2,2.8-0.4,4.1-0.6c1.7-0.4,3.5-1.1,5.4-1.8c1.7-0.7,3.5-1.5,5.4-2.6v4.5H389c-0.4-0.5-0.7-1-1-1.5
			c-0.3-0.4-0.5-0.8-0.8-1.3c-0.4-1.1-0.8-2.2-1-3.6c-0.2-1.3-0.2-3.2-0.2-5.9v-0.6l0.2-16.3c0-4.9-0.8-8.8-2.5-11.4
			c-1.7-2.6-5.7-4.5-12.3-5.7c-2.4-0.4-5.1-0.8-8-1.2c-3-0.2-5.9-0.4-8.9-0.4h-0.7H353c-4.1,0-7.7,0.2-10.8,0.6
			c-3.1,0.4-5.9,1.1-8.5,2.1c-1.1,0.4-2.1,0.8-3,1.3c-1,0.4-1.8,0.9-2.5,1.3c-0.8,0.5-1.4,1.1-1.8,1.5c-0.4,0.5-0.6,1-0.6,1.5
			c0,0.6,0.4,1.1,1,1.5c0.5,0.4,1.3,0.7,2.1,0.7c0.7,0,1.5-0.4,2.5-1.3c0.9-0.8,2.1-1.7,3.6-2.7s3.4-1.8,5.7-2.6
			c2.2-0.8,5.1-1.3,8.6-1.3c4.2,0,6.9,0.5,8.2,1.5c1.3,1.1,1.9,3.3,2,6.7L359.3,518.3z M359.4,521.4l-0.1,17.4
			c-0.7,0.6-1.5,1.2-2.4,1.6c-0.9,0.4-1.8,0.9-2.6,1.3c-1,0.4-2.1,0.8-3,1.1c-1,0.2-1.9,0.4-2.7,0.4c-1.5,0-2.6-0.3-3.1-0.9
			c-0.5-0.5-0.8-1.5-0.8-3v-2.1V527c0-3.6,0.3-5.8,0.7-6.8c0.5-1,1.8-1.4,3.8-1.4c1.7,0,3.4,0.3,5.1,0.8c1.6,0.5,3.1,1.1,4.6,1.7
			C359,521.4,359.1,521.4,359.4,521.4C359.3,521.2,359.4,521.3,359.4,521.4 M637.6,518.3V510c-0.1-3.4-0.7-5.7-2-6.7
			c-1.3-1-4-1.5-8.2-1.5c-3.5,0-6.3,0.4-8.6,1.3c-2.3,0.8-4.2,1.7-5.7,2.6c-1.5,1-2.7,1.9-3.6,2.7c-1,0.8-1.8,1.3-2.5,1.3
			c-0.9,0-1.6-0.3-2.1-0.7c-0.6-0.4-1-1-1-1.5c0-0.4,0.2-1,0.6-1.5c0.4-0.5,1.1-1.1,1.8-1.5c0.7-0.4,1.5-0.8,2.5-1.3
			c0.9-0.4,1.8-0.8,3-1.3c2.6-1,5.5-1.7,8.5-2.1c3.1-0.4,6.7-0.6,10.8-0.6h0.8h0.7c3,0.1,5.9,0.2,8.9,0.4c2.9,0.3,5.5,0.7,8,1.2
			c6.5,1.3,10.6,3.1,12.3,5.7c1.7,2.6,2.5,6.4,2.5,11.4l-0.1,16.3v0.6c0,2.7,0.1,4.6,0.2,5.9c0.2,1.3,0.4,2.5,1,3.6
			c0.3,0.4,0.4,0.8,0.8,1.3c0.3,0.4,0.6,1,1,1.5h-29.6v-4.5c-1.9,1.1-3.7,1.9-5.4,2.6c-1.8,0.7-3.6,1.3-5.4,1.8
			c-1.3,0.3-2.8,0.4-4.1,0.6c-1.4,0.2-2.9,0.3-4.3,0.3c-6.1,0-11.2-1.5-15.5-4.7c-4.3-3.1-6.3-7-6.3-11.6c0-4.6,2.4-8.5,7.2-11.5
			c4.6-3,10.6-4.5,17.8-4.5c1.5,0,2.9,0.1,4.2,0.1c1.3,0.1,2.6,0.3,3.8,0.5c1.3,0.2,2.5,0.5,3.8,1
			C634.7,517.2,636.1,517.7,637.6,518.3 M637.7,521.4c-0.1-0.1-0.2-0.1-0.3-0.2c-0.2,0-0.3,0-0.4-0.1c-1.5-0.6-3-1.2-4.6-1.7
			c-1.7-0.5-3.3-0.8-5.1-0.8c-2.1,0-3.3,0.4-3.8,1.4c-0.4,1-0.7,3.2-0.7,6.8V537v2.1c0,1.4,0.3,2.4,0.8,3c0.6,0.6,1.6,0.9,3.1,0.9
			c0.8,0,1.7-0.1,2.7-0.4c1-0.3,2.1-0.6,3-1.1c0.9-0.4,1.7-0.7,2.6-1.3c0.9-0.4,1.7-1,2.4-1.6L637.7,521.4z"/>
		<path class="st2" d="M763.9,476.1l42.7,76.7h-36.9l-5.1-9.8h-3l-30.7,0.1h-1.1l-3.6,6.4c-0.5,0.8-0.7,1.8-1.4,2.7
			c-0.4,0.5-1,0.7-1.6,0.7c-0.5,0-2.5-0.2-2.8-0.4c-0.4-0.4-0.5-0.6-0.5-1c0-0.6-0.2-0.8,0.5-2.2c0.7-1.4,1.5-3,2.5-4.6
			c0.1-0.2,0.2-0.4,0.3-0.7c0.1-0.2,0.2-0.3,0.4-0.4c0.8-1.3,1.5-2.6,2.3-3.7c0.7-1.2,1.3-2.1,1.7-2.6l26.9-45.4
			c0.5-0.9,1.1-1.8,1.7-2.7c0.5-0.9,1-1.8,1.5-2.6C759.7,483,762,479.6,763.9,476.1 M748.5,511.3l-1.1,1.8l-14.1,24.2l-1.1,2
			c10.1,0,18.6,0.1,28.7,0.1l1.8-0.1L748.5,511.3z"/>
		<path class="st2" d="M293.8,476.9l0.9,2.9l4.3,15.1l6.4,22.5l5.3,18l4.6,16.3l0.7,2.1l-32.1,0.1l-10.2-38.5l-21.6,33.9L230.7,518
			c-1.3,4.7-2.6,9.6-3.8,14.4c-1.3,4.8-2.3,9.7-3.2,14.5c0,0.1,0,0.2,0,0.4c-0.1,0.2-0.1,0.4-0.1,0.4c-0.1,0.4-0.2,0.9-0.2,1.4
			c-0.1,0.6-0.2,1.2-0.4,1.7c-0.3,1.3-0.3,1.5-0.8,2.6c-0.5,1.1-2.4,0.7-3.7,0.7c-1,0-2.2-0.4-2.2-1.6c0-1.7,0.6-3,1.1-4.6l3.2-11.6
			l5.7-20.1l4.9-18.5l4.7-16.8l1.1-3.8l29.1,43L293.8,476.9z"/>
	</g>
</g>
</svg>
