<?xml version="1.0" encoding="utf-8"?>
<svg xmlns="http://www.w3.org/2000/svg" xmlns:xlink="http://www.w3.org/1999/xlink"
     viewBox="0 0 1024 1024" width="1024" height="1024">
<rect width="1024" height="1024" fill="#FFFFFF"/>
<g transform="translate(71.680,407.253) scale(0.363878) translate(-113.829,-956.091)">
<style type="text/css">
	.st0{fill-rule:evenodd;clip-rule:evenodd;fill:#231F20;}
	.st1{fill-rule:evenodd;clip-rule:evenodd;fill:#6FBE44;}
</style>
<g>
	<g>
		<path class="st0" d="M517,1113.6l3.3,10.7l15.8,56.3l23.9,83.7l19.7,66.6l17.3,60.4l2.5,7.9l-119.5,0.2l-38-143.2l-80.5,126
			L281.6,1266c-5.1,17.6-9.7,35.5-14,53.4c-4.5,18-8.5,35.9-12,53.9v1.2c-0.3,0.6-0.4,1.2-0.4,1.7c-0.3,1.7-0.5,3.4-0.8,5.4
			c-0.2,2.2-0.8,4.2-1.3,6.2c-1.1,4.7-1,5.7-2.9,9.6c-2,3.9-8.9,2.5-13.5,2.5c-3.5,0-8.2-1.6-8.2-6c0-6.3,2.2-10.9,3.9-16.8l12-43.1
			l21.2-74.7l19.2-68.3l17.6-62.6l4-14.4l108,160.1L517,1113.6z M2266.4,1110.6l158.9,285.4H2288l-18.8-36.6l-11.3,0l-114.2,0.2
			l-3.9,0l-13.4,24.1c-2.1,3-2.6,6.7-5.3,9.9c-1.6,1.9-3.6,2.8-6.1,2.8c-1.9,0-9.2-0.6-10.4-1.7c-1.2-1.2-2-2.2-2-3.6
			c0-2.2-0.7-2.9,2-8.3c2.7-5.4,5.8-11.1,9.4-17.1c0.3-0.8,0.7-1.6,1.1-2.5c0.3-0.5,0.7-1,1.2-1.6c3-4.9,5.8-9.5,8.5-13.8
			c2.7-4.3,4.7-7.6,6.2-9.8l100-168.8c1.9-3.2,3.9-6.6,6.2-10.1c1.9-3.3,3.8-6.5,5.6-9.8C2250.6,1136.5,2259,1123.7,2266.4,1110.6
			 M2209,1241.6l-3.9,6.5l-52.7,90.2l-4,7.4c37.5-0.1,69.1,0.3,106.7,0.2l6.6-0.4L2209,1241.6z M238.5,1414.6h2169.8
			c8,0,14.6,1.8,14.6,4c0,2.2-6.6,4-14.6,4H238.5c-8,0-14.6-1.8-14.6-4C223.9,1416.4,230.4,1414.6,238.5,1414.6 M628.6,1392.5
			h1443.2c8.3,0,15.1,1.8,15.1,4s-6.8,4-15.1,4H628.6c-8.3,0-15-1.8-15-4C613.5,1394.3,620.3,1392.5,628.6,1392.5 M314.9,1084.2
			h1934.3c7.2,0,13,2,13,4.4c0,2.4-5.9,4.4-13,4.4H314.9c-7.2,0-13-2-13-4.4S307.7,1084.2,314.9,1084.2 M538,1107.1
			c-8.3,0-15,1.8-15,4c0,2.2,6.8,4,15,4h1697.7c8.3,0,15.1-1.8,15.1-4c0-2.2-6.8-4-15.1-4H538z M891.8,1196.6l0-18
			c2.2-0.6,4.3-1.3,6.5-2.2c2.1-0.7,4.2-1.3,6.4-1.9c15.1-5,30.1-10.1,45.1-15.2c14.7-5.3,29.2-11.2,43.4-17.9
			c-0.5,9.2-1,18.6-1.6,28c-0.5,9.2-0.8,18.7-0.8,28.2c2.7,0,5.4,0,8,0c2.4,0,5-0.1,7.6-0.3c2.4,0,4.9-0.1,7.6-0.3
			c2.4-0.2,5-0.4,7.6-0.7h1.6h1.7c2.4,0.2,4.7,0.7,6.8,1.2c1.8,0.9,2.8,2.6,2.7,5.1c0,2-0.8,3.4-2.3,4.3c-1.6,1.1-4,1.6-6.9,1.6
			c-2.9,0-5.7-0.1-8.4-0.3c-3,0-5.9-0.1-8.8-0.3c-3-0.2-5.8-0.4-8.4-0.7h-8.8c-0.3,7.2-0.4,12.8-0.4,16.9c0,4.3,0,8.3,0,12v1.1
			c0,0.4,0,0.7,0,0.9c0,7.8,0.1,15.6,0.4,23.4c0,8,0.1,15.9,0.4,23.7c0.3,8,0.5,15.9,0.8,23.7c0,8,0,15.9,0,23.7
			c0,7.8,0.8,13.2,2.4,16.2c1.3,3,3.7,4.6,7.2,4.6c1.4,0,2.9-0.3,4.4-1c1.7-0.4,3.3-1.1,4.9-1.9c3.5-1.9,6.8-4.8,10-8.4
			c3.2-3.5,5.9-7.4,8.1-11.8c0.5-1.1,1-2.1,1.6-2.9c0.3-0.7,0.7-1.3,1.3-1.9c1.1-1.5,2.1-2.6,3.2-3.2c1.1-0.6,2.5-0.9,4-0.9
			c2.2,0,3.8,0.5,4.8,1.6c1.1,1.1,1.7,2.5,1.7,4.5c0,2.2-0.7,4.7-2.1,7.5c-1.3,2.8-3.2,5.7-5.6,8.7c-1.9,2.6-4,5.1-6.4,7.5
			c-2.7,2.5-5.5,4.8-8.5,6.8c-8,5.4-16.8,9.4-26.5,12c-9.8,2.6-21.1,3.9-33.8,3.9c-26.2,0-44.6-6.1-55.1-18.1
			c-10.7-12-16.1-27.7-16.1-47.1v-7.1c0-2.4,0.1-4.8,0.4-7.2c0-2.2,0-4.4,0-6.8v-7.2l0-16.9l0-56.7H887c-1.6,0.2-3.2,0.3-4.8,0.3
			H877c-1.7,0.2-3.3,0.3-4.9,0.3c-3.5,0-6-0.4-7.6-1.3c-1.6-0.9-2.4-2.3-2.4-4.2c0-2.2,0.8-3.8,2.5-4.9c1.3-0.9,3.5-1.3,6.8-1.3
			c1.1,0,2.4,0.1,4,0.3c1.3,0.5,2.7,0.9,4,1.3h0.8c1.6,0.4,3.2,0.8,4.8,1c1.4,0.4,2.6,0.7,3.7,0.7c1.1,0,1.9-0.2,2.4-0.7
			C891.6,1198,891.8,1197.4,891.8,1196.6 M1212.3,1264.8l0-30.5c-0.3-12.8-2.7-21.2-7.2-25.1c-4.9-3.8-15.1-5.8-30.6-5.8
			c-12.9,0-23.5,1.5-31.8,4.5c-8.6,3-15.7,6.3-21.3,9.8c-5.6,3.7-10,7-13.2,10.1c-3.6,3-6.6,4.5-9.2,4.5c-3.3,0-6-0.9-8.1-2.6
			c-2.4-1.7-3.6-3.6-3.6-5.8c0-1.7,0.7-3.6,2.3-5.6c1.6-1.9,3.9-3.9,6.8-5.8c2.7-1.5,5.8-3.1,9.2-4.8c3.2-1.6,6.8-3.1,10.9-4.6
			c9.6-3.7,20.2-6.3,31.7-7.8c11.5-1.5,24.9-2.3,40.2-2.3h2.9h2.8c11,0.2,22,0.8,33,1.6c10.7,1.1,20.6,2.5,29.8,4.2
			c24.4,4.5,39.7,11.6,45.8,21.2c6.2,9.7,9.2,23.8,9.2,42.2l-0.4,60.4v2.3c0,9.9,0.2,17.3,0.8,22c0.6,5,1.8,9.4,3.6,13.3
			c0.9,1.5,1.8,3,2.9,4.5c1,1.8,2.2,3.6,3.6,5.6h-110.2l0-16.6c-7,3.9-13.8,7.2-20.1,9.7c-6.8,2.8-13.3,5.1-19.8,6.8
			c-5.1,0.9-10.2,1.6-15.3,2.3c-5.3,0.6-10.7,1-16,1c-22.5,0-41.7-5.8-57.6-17.5c-15.8-11.7-23.7-26.1-23.7-43.2
			c0-17.3,8.9-31.7,26.6-42.9c17.4-11,39.5-16.6,66.3-16.6c5.6,0,10.9,0.2,15.7,0.4c4.8,0.4,9.5,1,14.1,1.9c4.6,0.8,9.2,2,14.1,3.6
			C1201.5,1260.8,1206.7,1262.6,1212.3,1264.8 M1212.7,1276.1c-0.3-0.2-0.5-0.4-0.9-0.7c-0.5,0-0.9-0.1-1.2-0.3
			c-5.6-2.2-11.4-4.2-17.3-6.2c-6.2-1.9-12.4-2.9-18.8-2.9c-7.5,0-12.3,1.7-14.1,5.2c-1.8,3.7-2.8,12.1-2.8,25.3l0,37.9l0,7.8
			c0,5.4,1.1,9.1,3.1,11c2.2,2.2,6,3.2,11.7,3.2c2.9,0,6.3-0.4,10.1-1.2c3.8-0.9,7.5-2.2,11.3-4c3.2-1.2,6.4-2.8,9.7-4.5
			c3.3-1.7,6.2-3.7,8.9-5.9L1212.7,1276.1z M1457.2,1197.2l0,21.8c11-6.3,21.6-11.4,31.8-15.3c9.9-3.9,19.7-6.7,29.3-8.5
			c4.6-0.8,9.1-1.5,13.6-1.9c4.6-0.5,9.2-0.7,13.7-0.7c17.4,0,32.3,3.1,44.6,9.4c12.4,6.3,20.2,14.7,23.4,25.1
			c0.2,1.3,0.7,2.5,1.1,3.6c0.3,1.3,0.5,2.5,0.8,3.6c0.5,3,0.9,6.3,1.3,9.8c0,3.7,0,8.9,0,15.8c0,5.7,0,11.3,0,16.9
			c0,5.7,0,11.3,0,16.9c-0.3,5.7-0.5,11.3-0.5,16.9c0,5.7,0,11.3,0,16.9c0,7.2,0,14.3,0,21.5c0,7.2,0.1,14.3,0.4,21.4h-99.7
			c0.3-5,0.4-10,0.4-14.9c0-4.8,0-9.6,0-14.4v-3.8c0-1.3,0.1-2.5,0.4-3.6c0-1.3,0-2.6,0-3.9c0-1.1,0-2.3,0-3.6l0.4-32.5
			c0-5.4,0-10.8,0-16.1c0-5.5,0-11,0-16.6c-0.2-5.5-0.4-10.9-0.4-16.3c0-5.4,0-10.8,0-16.2c0-5.2-1.2-9-3.6-11.4
			c-2.5-2.2-6.5-3.2-12.1-3.2c-6.1,0-12.9,1.5-20.5,4.6c-7.7,3-15.9,7.5-24.5,13.3v6.5l-0.4,44.8c0,4.3,0,8.6,0,12.7
			c-0.3,4.3-0.4,8.7-0.4,13c0,4.3,0,8.6,0,12.7c0,4.3,0,8.6,0,12.9c0,6.1,0.1,12.1,0.4,18c0,6,0.1,12.1,0.4,18.1h-100.5
			c0-8.9,0.2-17.8,0.5-26.6c0-8.7,0.2-17.4,0.4-26c0-8.8,0.1-17.6,0.4-26.5c0-8.7,0-17.4,0-26c0-5.7,0-11.3,0-16.9
			c-0.2-5.7-0.4-11.3-0.4-17.2c-0.3-5.6-0.4-11.3-0.4-16.9c-0.3-5.6-0.5-11.2-0.5-16.9L1457.2,1197.2L1457.2,1197.2z M1936.6,1196.7
			l0-18c2.1-0.6,4.2-1.4,6.5-2.2c2-0.7,4.2-1.2,6.4-1.9c15.1-4.9,30.2-10,45.1-15.2c14.7-5.2,29.2-11.2,43.4-17.9
			c-0.5,9.2-1,18.6-1.6,28c-0.5,9.2-0.8,18.7-0.8,28.2h8c2.4,0,5-0.2,7.6-0.3c2.4-0.1,5-0.1,7.6-0.3c2.4-0.2,5-0.5,7.6-0.7
			c0.5,0,1.1,0,1.6,0c0.6,0,1.1,0,1.7,0c2.4,0.2,4.8,0.5,6.8,1.2c1.9,0.7,2.7,2.6,2.7,5.1c0,2-0.9,3.3-2.3,4.3c-1.7,1-4,1.6-6.9,1.6
			c-2.9,0-5.7-0.2-8.4-0.3c-2.9-0.1-5.9-0.1-8.9-0.3c-2.9-0.2-5.8-0.6-8.4-0.7c-2.9-0.1-5.9,0-8.8,0c-0.3,7.1-0.4,12.8-0.4,16.9
			c0,4.3,0,8.3,0,12c0,0.5,0,0.9,0,1.1c0,0.4,0,0.7,0,0.9c0,7.8,0.3,11.8,0.4,19.6c0.1,8,0.1,15.9,0.4,23.7c0.3,8,0.7,15.9,0.8,23.7
			c0.1,8,0,15.9,0,23.7c0,7.8,0.9,13.2,2.4,16.2c1.4,3,3.7,4.6,7.2,4.6c1.4,0,2.8-0.5,4.4-1c1.6-0.5,3.3-1.1,4.9-1.9
			c3.5-1.9,6.8-4.8,10.1-8.4c3.1-3.5,5.9-7.4,8.1-11.8c0.5-1.1,1.1-2,1.6-2.9c0.3-0.6,0.7-1.3,1.3-1.9c1.1-1.5,2.1-2.6,3.1-3.2
			c1.1-0.6,2.5-0.9,4-0.9c2.1,0,3.8,0.5,4.8,1.6c1.1,1.1,1.7,2.6,1.7,4.6c0,2.2-0.7,4.7-2.1,7.5c-1.3,2.8-3.3,5.6-5.6,8.7
			c-2,2.6-4,5.1-6.4,7.5c-2.7,2.6-5.5,4.8-8.5,6.8c-8,5.4-16.8,9.4-26.6,12c-9.8,2.6-21.1,3.9-33.8,3.9c-26.2,0-44.5-6.1-55.1-18.1
			c-10.6-12-16.1-27.7-16.1-47.1c0-2.4,0-4.7,0-7.1s0.3-4.8,0.4-7.1c0.1-2.2,0-4.4,0-6.8c0-2.4,0-4.9,0-7.2l0-16.9l0.1-53
			c-1.5,0-3.2-0.1-4.8,0c-1.6,0.1-3.2,0.3-4.8,0.3c-1.9,0-3.6-0.1-5.2,0c-1.7,0.1-3.3,0.3-4.9,0.3c-3.5,0-6-0.4-7.6-1.3
			c-1.6-0.9-2.4-2.3-2.4-4.2c0-2.2,0.8-3.8,2.5-4.9c1.3-0.9,3.6-1.3,6.8-1.3c1.1,0,2.5-0.1,4,0.3c1.4,0.3,2.7,0.9,4,1.3h0.8
			c1.6,0.4,3.3,0.7,4.8,1c1.4,0.3,2.6,0.7,3.7,0.7c1.1,0,1.9-0.2,2.4-0.7C1936.3,1198.1,1936.6,1197.5,1936.6,1196.7 M2343.6,1066.7
			c-6.1,0-11.9,1.5-17.4,4.6c-5.5,3.1-9.9,7.4-13.1,12.9c-3.2,5.5-4.8,11.5-4.8,17.8c0,9.8,3.4,18.1,10.3,25
			c6.9,6.9,15.2,10.3,25,10.3c9.8,0,18.2-3.4,25.1-10.3c6.9-6.9,10.3-15.2,10.3-25c0-9.8-3.4-18.2-10.3-25
			C2361.8,1070.1,2353.4,1066.7,2343.6,1066.7 M2343.6,1069.8c-5.7,0-11.1,1.4-16,4.3c-5,2.9-8.9,6.8-11.8,11.7
			c-3,5.1-4.4,10.5-4.4,16.3c0,9,3.1,16.6,9.4,22.9c6.3,6.3,13.9,9.4,22.9,9.4c8.9,0,16.6-3.1,22.9-9.4c6.3-6.3,9.5-13.9,9.5-22.9
			c0-5.8-1.5-11.2-4.4-16.3c-2.9-5.1-6.9-9-12-11.8C2354.5,1071.2,2349.2,1069.8,2343.6,1069.8 M2325.3,1080.3v1.8
			c2.2,0,3.6,0.6,4.1,1.8c0.3,0.7,0.5,2.3,0.5,4.9v26.1c0,2.4-0.1,3.9-0.3,4.6c-0.4,1.5-2,2.3-4.9,2.3v1.7h18.3v-1.7
			c-3.5,0-5.5-1-5.9-3.1v-15.4h3.8l14.7,20.2h9.1v-1.7c-2-0.1-4-1.6-6-4.3l-10.5-14.9c7.4-1.8,11.1-5.5,11.1-11.1
			c0-3.8-1.6-6.6-4.8-8.6c-2.7-1.7-6.1-2.5-10-2.5L2325.3,1080.3L2325.3,1080.3z M2337.1,1101.1v-17.8c1.5-0.5,2.9-0.7,4.2-0.7
			c2.8,0,5.2,0.9,7.1,2.7c1.9,1.7,2.9,4,2.9,6.8c0,6-4.2,9.1-12.7,9.1L2337.1,1101.1L2337.1,1101.1z M756.6,1267.7
			c-5.6-2.2-10.8-4-15.7-5.5c-4.9-1.6-9.6-2.8-14.1-3.6c-4.6-0.9-9.2-1.5-14.1-1.9c-4.8-0.3-10-0.4-15.7-0.4
			c-26.8,0-48.9,5.5-66.3,16.6c-17.8,11.2-26.6,25.6-26.6,42.9c0,17.1,7.9,31.5,23.7,43.2c15.9,11.7,35,17.5,57.5,17.5
			c5.4,0,10.7-0.3,16-1c5.1-0.7,10.2-1.4,15.3-2.3c6.4-1.7,13-4,19.8-6.8c6.4-2.6,13.1-5.8,20.1-9.7l0,16.6h110.2
			c-1.4-1.9-2.6-3.8-3.6-5.6c-1.1-1.5-2-3-2.9-4.5c-1.8-3.9-3-8.3-3.6-13.3c-0.5-4.8-0.8-12.1-0.8-22v-2.3l0.5-60.4
			c0-18.4-3.1-32.5-9.2-42.2c-6.2-9.6-21.4-16.6-45.8-21.2c-9.1-1.7-19-3.1-29.8-4.2c-11-0.8-22-1.3-33-1.6h-2.8h-2.9
			c-15.3,0-28.7,0.8-40.2,2.3c-11.5,1.5-22.1,4.1-31.7,7.8c-4.1,1.5-7.7,3-10.9,4.6c-3.5,1.7-6.6,3.3-9.2,4.8
			c-3,1.9-5.2,3.9-6.8,5.8c-1.6,2-2.4,3.8-2.4,5.6c0,2.2,1.2,4.1,3.6,5.8c2.1,1.7,4.8,2.6,8,2.6c2.6,0,5.7-1.5,9.2-4.5
			c3.2-3,7.6-6.4,13.2-10.1c5.6-3.5,12.7-6.8,21.3-9.8c8.3-3,19-4.5,31.8-4.5c15.5,0,25.7,1.9,30.5,5.8c4.5,3.9,6.9,12.2,7.2,25
			L756.6,1267.7z M757,1279.1l-0.4,64.9c-2.7,2.2-5.6,4.2-8.9,5.9c-3.2,1.7-6.5,3.2-9.7,4.5c-3.8,1.8-7.5,3.1-11.3,4
			c-3.8,0.8-7.1,1.2-10,1.2c-5.6,0-9.5-1.1-11.7-3.2c-2.1-1.9-3.1-5.6-3.1-11v-7.8l0-37.9c0-13.2,1-21.7,2.8-25.3
			c1.9-3.5,6.7-5.2,14.2-5.2c6.4,0,12.7,1,18.8,2.9c5.9,1.9,11.7,4,17.3,6.2c0.3,0.2,0.7,0.3,1.2,0.3
			C756.5,1278.6,756.7,1278.8,757,1279.1 M1791.7,1267.7l0-30.5c-0.3-12.8-2.7-21.2-7.2-25c-4.9-3.8-15.1-5.8-30.6-5.8
			c-12.9,0-23.5,1.5-31.8,4.5c-8.6,3-15.7,6.3-21.3,9.8c-5.6,3.7-10,7-13.2,10.1c-3.6,3-6.6,4.5-9.2,4.5c-3.3,0-6-0.9-8-2.6
			c-2.4-1.7-3.6-3.6-3.6-5.8c0-1.7,0.7-3.6,2.4-5.6c1.6-1.9,3.9-3.9,6.8-5.8c2.7-1.5,5.8-3.1,9.2-4.8c3.2-1.6,6.8-3.1,10.9-4.6
			c9.6-3.7,20.2-6.3,31.7-7.8c11.5-1.5,24.9-2.3,40.2-2.3h2.9h2.8c11,0.2,22,0.8,33,1.6c10.7,1.1,20.6,2.5,29.8,4.2
			c24.4,4.5,39.7,11.6,45.8,21.2c6.2,9.7,9.2,23.8,9.2,42.2l-0.4,60.4v2.3c0,9.9,0.2,17.3,0.8,22c0.6,5,1.8,9.4,3.6,13.3
			c0.9,1.5,1.8,3,2.9,4.5c1,1.8,2.2,3.6,3.6,5.6h-110.2l0-16.6c-7,3.9-13.8,7.1-20.1,9.7c-6.8,2.8-13.3,5.1-19.8,6.8
			c-5.1,0.9-10.2,1.6-15.3,2.3c-5.3,0.6-10.7,1-16,1c-22.5,0-41.7-5.8-57.6-17.5c-15.8-11.7-23.7-26.1-23.7-43.2
			c0-17.3,8.9-31.7,26.6-42.9c17.4-11,39.5-16.6,66.3-16.6c5.6,0,10.8,0.2,15.7,0.4c4.8,0.4,9.5,1,14.1,1.9c4.6,0.8,9.2,2,14.1,3.6
			C1780.9,1263.7,1786.1,1265.5,1791.7,1267.7 M1792.1,1279.1c-0.3-0.2-0.5-0.4-0.9-0.7c-0.5,0-0.9-0.1-1.2-0.3
			c-5.6-2.2-11.4-4.2-17.3-6.2c-6.2-1.9-12.4-2.9-18.8-2.9c-7.5,0-12.3,1.7-14.1,5.2c-1.8,3.7-2.8,12.1-2.8,25.3l0,37.9l0,7.8
			c0,5.4,1.1,9.1,3.1,11c2.2,2.2,6,3.2,11.7,3.2c3,0,6.3-0.4,10.1-1.2c3.7-0.9,7.5-2.2,11.3-4c3.2-1.2,6.4-2.8,9.7-4.5
			c3.3-1.7,6.2-3.7,8.9-5.9L1792.1,1279.1z"/>
		<path class="st1" d="M2261.7,1110.6l158.9,285.3h-137.3l-18.8-36.6l-11.3,0l-114.2,0.2l-3.9,0l-13.4,24.1c-2.1,3-2.6,6.7-5.3,9.9
			c-1.6,1.9-3.6,2.8-6.1,2.8c-1.9,0-9.2-0.6-10.4-1.7c-1.2-1.2-2-2.2-2-3.6c0-2.2-0.6-2.9,2-8.3c2.7-5.4,5.8-11.1,9.4-17.1
			c0.3-0.8,0.7-1.6,1.1-2.5c0.3-0.5,0.7-1,1.2-1.6c3-4.9,5.8-9.5,8.5-13.8c2.7-4.3,4.7-7.6,6.2-9.8l100-168.8
			c1.9-3.3,3.9-6.6,6.2-10.1c1.9-3.3,3.8-6.5,5.6-9.8C2246,1136.5,2254.3,1123.7,2261.7,1110.6 M2204.3,1241.6l-3.9,6.6l-52.7,90.2
			l-4.1,7.4c37.5-0.1,69.1,0.3,106.6,0.2l6.6-0.4L2204.3,1241.6z"/>
		<path class="st1" d="M512.6,1113.6l3.3,10.7l15.8,56.3l23.9,83.7l19.7,66.7l17.3,60.4l2.5,7.9l-119.5,0.2l-38-143.2l-80.6,126
			l-79.9-116.2c-5.1,17.6-9.7,35.5-14,53.4c-4.5,17.9-8.5,35.9-12,53.8c0,0.3,0,0.6,0,1.2c-0.3,0.6-0.4,1.2-0.4,1.7
			c-0.2,1.7-0.5,3.4-0.8,5.4c-0.2,2.2-0.8,4.2-1.3,6.2c-1.1,4.7-1,5.7-2.9,9.6c-2,3.9-8.9,2.5-13.5,2.5c-3.5,0-8.2-1.6-8.2-6
			c0-6.3,2.2-10.9,3.9-16.8l12-43.1l21.2-74.7l19.2-68.3l17.6-62.6l4-14.4L410,1274L512.6,1113.6z"/>
	</g>
</g>
</g>
</svg>
